<mxfile host="65bd71144e">
    <diagram id="be1D3EQEFogJI6WzREjb" name="Page-1">
        <mxGraphModel dx="1067" dy="537" grid="0" gridSize="10" guides="1" tooltips="1" connect="1" arrows="1" fold="1" page="1" pageScale="1" pageWidth="850" pageHeight="1100" background="#ffffff" math="0" shadow="0">
            <root>
                <mxCell id="0"/>
                <mxCell id="1" value="1-Setup" style="" parent="0"/>
                <mxCell id="8" value="Text" style="text;html=1;align=center;verticalAlign=middle;resizable=0;points=[];autosize=1;strokeColor=none;fillColor=none;rounded=0;" parent="1" vertex="1">
                    <mxGeometry x="46" y="264.5" width="50" height="30" as="geometry"/>
                </mxCell>
                <mxCell id="35" value="" style="whiteSpace=wrap;html=1;glass=0;dashed=1;dashPattern=8 8;strokeColor=#E6E6E6;fontColor=#CC6600;fillColor=#E6E6E6;rounded=0;flipH=0;direction=east;" parent="1" vertex="1">
                    <mxGeometry x="638" y="102.5" width="120" height="159" as="geometry"/>
                </mxCell>
                <mxCell id="36" value="" style="edgeStyle=none;html=1;fontColor=#CC6600;rounded=0;" parent="1" edge="1">
                    <mxGeometry relative="1" as="geometry">
                        <mxPoint x="502" y="215.41982182628067" as="sourcePoint"/>
                        <mxPoint x="503" y="215.1685254764618" as="targetPoint"/>
                    </mxGeometry>
                </mxCell>
                <mxCell id="37" value="" style="aspect=fixed;html=1;points=[];align=center;image;fontSize=12;image=img/lib/azure2/compute/Virtual_Machine.svg;glass=0;dashed=1;dashPattern=8 8;strokeColor=#666666;fillColor=none;rounded=0;flipH=0;direction=east;" parent="1" vertex="1">
                    <mxGeometry x="663.5" y="141.5" width="69" height="64" as="geometry"/>
                </mxCell>
                <mxCell id="41" value="" style="whiteSpace=wrap;html=1;fillColor=none;strokeColor=#CCCCCC;glass=0;dashed=1;rounded=0;flipH=0;direction=east;movable=1;resizable=1;rotatable=1;deletable=1;editable=1;connectable=1;" parent="1" vertex="1">
                    <mxGeometry x="503" y="97" width="260" height="168" as="geometry"/>
                </mxCell>
                <mxCell id="40" value="Az-Hub-lxvm&lt;br&gt;10.0.1.4&lt;br&gt;&lt;font color=&quot;#cc6600&quot;&gt;&lt;b&gt;(100.64.2.4)&lt;/b&gt;&lt;/font&gt;" style="text;html=1;align=center;verticalAlign=middle;resizable=0;points=[];autosize=1;strokeColor=none;fillColor=none;fontColor=#000000;rounded=0;flipH=0;" parent="1" vertex="1">
                    <mxGeometry x="655" y="199.5" width="87" height="55" as="geometry"/>
                </mxCell>
                <mxCell id="42" value="Subnet1&lt;br style=&quot;font-size: 10px;&quot;&gt;10.1.0./27" style="text;html=1;align=center;verticalAlign=middle;resizable=0;points=[];autosize=1;strokeColor=none;fillColor=none;fontColor=#000000;rounded=0;flipH=0;fontSize=10;" parent="1" vertex="1">
                    <mxGeometry x="701" y="102.5" width="62" height="36" as="geometry"/>
                </mxCell>
                <mxCell id="43" value="" style="whiteSpace=wrap;html=1;glass=0;dashed=1;dashPattern=8 8;strokeColor=#E6E6E6;fontColor=#CC6600;fillColor=#E6E6E6;rounded=0;flipH=0;direction=east;" parent="1" vertex="1">
                    <mxGeometry x="508" y="102.5" width="125" height="159" as="geometry"/>
                </mxCell>
                <mxCell id="44" value="GatewaySubnet&lt;br style=&quot;font-size: 10px;&quot;&gt;172.16.2.0/27" style="text;html=1;align=center;verticalAlign=middle;resizable=0;points=[];autosize=1;strokeColor=none;fillColor=none;fontColor=#000000;rounded=0;flipH=0;fontSize=10;" parent="1" vertex="1">
                    <mxGeometry x="549" y="102.5" width="89" height="36" as="geometry"/>
                </mxCell>
                <mxCell id="45" value="" style="aspect=fixed;html=1;points=[];align=center;image;fontSize=12;image=img/lib/azure2/networking/Virtual_Network_Gateways.svg;glass=0;dashed=1;dashPattern=8 8;strokeColor=#E6E6E6;fontColor=#000000;fillColor=#CCCCCC;rounded=0;flipH=0;direction=east;" parent="1" vertex="1">
                    <mxGeometry x="544.5" y="141.5" width="52" height="69" as="geometry"/>
                </mxCell>
                <mxCell id="46" value="&lt;div&gt;SKU: VpnGw1&lt;/div&gt;&lt;div&gt;&lt;b&gt;AS 65002&lt;/b&gt;&lt;/div&gt;&lt;div&gt;BGP IP: &lt;b&gt;172.16.2.30&lt;/b&gt;&lt;/div&gt;" style="text;html=1;align=center;verticalAlign=middle;resizable=0;points=[];autosize=1;strokeColor=none;fillColor=none;fontColor=#9933FF;rounded=0;flipH=0;" parent="1" vertex="1">
                    <mxGeometry x="504" y="208.5" width="128" height="55" as="geometry"/>
                </mxCell>
                <mxCell id="47" value="" style="aspect=fixed;html=1;points=[];align=center;image;fontSize=12;image=img/lib/azure2/networking/Virtual_Networks.svg;glass=0;dashed=1;dashPattern=8 8;strokeColor=#E6E6E6;fontColor=#000000;fillColor=#CCCCCC;rounded=0;flipH=0;direction=east;" parent="1" vertex="1">
                    <mxGeometry x="722.25" y="254" width="41.04" height="24.5" as="geometry"/>
                </mxCell>
                <mxCell id="15" value="" style="whiteSpace=wrap;html=1;glass=0;dashed=1;dashPattern=8 8;strokeColor=#E6E6E6;fontColor=#CC6600;fillColor=#E6E6E6;rounded=0;" parent="1" vertex="1">
                    <mxGeometry x="76" y="226.5" width="120" height="159" as="geometry"/>
                </mxCell>
                <mxCell id="13" value="" style="edgeStyle=none;html=1;fontColor=#CC6600;rounded=0;" parent="1" target="12" edge="1">
                    <mxGeometry relative="1" as="geometry">
                        <mxPoint x="311.5" y="339.41982182628067" as="sourcePoint"/>
                    </mxGeometry>
                </mxCell>
                <mxCell id="7" value="" style="aspect=fixed;html=1;points=[];align=center;image;fontSize=12;image=img/lib/azure2/compute/Virtual_Machine.svg;glass=0;dashed=1;dashPattern=8 8;strokeColor=#666666;fillColor=none;rounded=0;" parent="1" vertex="1">
                    <mxGeometry x="101.5" y="265.5" width="69" height="64" as="geometry"/>
                </mxCell>
                <mxCell id="12" value="" style="whiteSpace=wrap;html=1;fillColor=none;strokeColor=#CCCCCC;glass=0;dashed=1;rounded=0;" parent="1" vertex="1">
                    <mxGeometry x="71" y="222" width="260" height="168" as="geometry"/>
                </mxCell>
                <mxCell id="11" value="Az-Hub-lxvm&lt;br&gt;10.0.1.4&lt;br&gt;&lt;font color=&quot;#cc6600&quot;&gt;&lt;b&gt;(100.64.1.4)&lt;/b&gt;&lt;/font&gt;" style="text;html=1;align=center;verticalAlign=middle;resizable=0;points=[];autosize=1;strokeColor=none;fillColor=none;fontColor=#000000;rounded=0;" parent="1" vertex="1">
                    <mxGeometry x="93" y="323.5" width="87" height="55" as="geometry"/>
                </mxCell>
                <mxCell id="16" value="Subnet1&lt;br style=&quot;font-size: 10px;&quot;&gt;10.1.0./27" style="text;html=1;align=center;verticalAlign=middle;resizable=0;points=[];autosize=1;strokeColor=none;fillColor=none;fontColor=#000000;rounded=0;fontSize=10;" parent="1" vertex="1">
                    <mxGeometry x="71" y="227.5" width="62" height="36" as="geometry"/>
                </mxCell>
                <mxCell id="17" value="" style="whiteSpace=wrap;html=1;glass=0;dashed=1;dashPattern=8 8;strokeColor=#E6E6E6;fontColor=#CC6600;fillColor=#E6E6E6;rounded=0;" parent="1" vertex="1">
                    <mxGeometry x="201" y="226.5" width="125" height="159" as="geometry"/>
                </mxCell>
                <mxCell id="18" value="GatewaySubnet&lt;br style=&quot;font-size: 10px;&quot;&gt;172.16.1.0/27" style="text;html=1;align=center;verticalAlign=middle;resizable=0;points=[];autosize=1;strokeColor=none;fillColor=none;fontColor=#000000;rounded=0;fontSize=10;" parent="1" vertex="1">
                    <mxGeometry x="193" y="227.5" width="89" height="36" as="geometry"/>
                </mxCell>
                <mxCell id="19" value="" style="aspect=fixed;html=1;points=[];align=center;image;fontSize=12;image=img/lib/azure2/networking/Virtual_Network_Gateways.svg;glass=0;dashed=1;dashPattern=8 8;strokeColor=#E6E6E6;fontColor=#000000;fillColor=#CCCCCC;rounded=0;" parent="1" vertex="1">
                    <mxGeometry x="237.5" y="265.5" width="52" height="69" as="geometry"/>
                </mxCell>
                <mxCell id="20" value="&lt;div&gt;SKU: VpnGw2&lt;/div&gt;&lt;div&gt;&lt;b&gt;AS 65001&lt;/b&gt;&lt;/div&gt;&lt;div&gt;BGP IP: &lt;b&gt;172.16.1.30&lt;/b&gt;&lt;/div&gt;" style="text;html=1;align=center;verticalAlign=middle;resizable=0;points=[];autosize=1;strokeColor=none;fillColor=none;fontColor=#9933FF;rounded=0;" parent="1" vertex="1">
                    <mxGeometry x="202" y="332.5" width="128" height="55" as="geometry"/>
                </mxCell>
                <mxCell id="21" value="" style="aspect=fixed;html=1;points=[];align=center;image;fontSize=12;image=img/lib/azure2/networking/Virtual_Networks.svg;glass=0;dashed=1;dashPattern=8 8;strokeColor=#E6E6E6;fontColor=#000000;fillColor=#CCCCCC;rounded=0;" parent="1" vertex="1">
                    <mxGeometry x="71" y="378" width="41.88" height="25" as="geometry"/>
                </mxCell>
                <mxCell id="76" value="&lt;font style=&quot;font-size: 14px;&quot;&gt;&lt;b style=&quot;font-size: 14px;&quot;&gt;&lt;font color=&quot;#000000&quot;&gt;AZ1-VNET&lt;/font&gt;&lt;br style=&quot;font-size: 14px;&quot;&gt;&lt;font color=&quot;#000000&quot;&gt;10.0.1.0/24&lt;/font&gt;&lt;br style=&quot;font-size: 14px;&quot;&gt;172.16.1.0/27&lt;br style=&quot;font-size: 14px;&quot;&gt;&lt;/b&gt;&lt;/font&gt;" style="text;strokeColor=none;align=center;fillColor=none;html=1;verticalAlign=middle;whiteSpace=wrap;rounded=0;glass=0;dashed=1;sketch=0;hachureGap=4;jiggle=2;curveFitting=1;fontFamily=Helvetica;fontSize=14;fontColor=#9933FF;" parent="1" vertex="1">
                    <mxGeometry x="117" y="155" width="135" height="59" as="geometry"/>
                </mxCell>
                <mxCell id="77" value="&lt;font style=&quot;font-size: 14px;&quot;&gt;&lt;b style=&quot;font-size: 14px;&quot;&gt;&lt;font color=&quot;#000000&quot;&gt;AZ2-VNET&lt;/font&gt;&lt;br style=&quot;font-size: 14px;&quot;&gt;&lt;font color=&quot;#000000&quot;&gt;10.0.1.0/24&lt;/font&gt;&lt;br style=&quot;font-size: 14px;&quot;&gt;172.16.1.32/27&lt;br style=&quot;font-size: 14px;&quot;&gt;&lt;/b&gt;&lt;/font&gt;" style="text;strokeColor=none;align=center;fillColor=none;html=1;verticalAlign=middle;whiteSpace=wrap;rounded=0;glass=0;dashed=1;sketch=0;hachureGap=4;jiggle=2;curveFitting=1;fontFamily=Helvetica;fontSize=14;fontColor=#9933FF;" parent="1" vertex="1">
                    <mxGeometry x="575" y="32" width="135" height="59" as="geometry"/>
                </mxCell>
                <mxCell id="78" value="&lt;font style=&quot;font-size: 14px;&quot;&gt;&lt;b style=&quot;font-size: 14px;&quot;&gt;&lt;font color=&quot;#000000&quot;&gt;AZ3-VNET&lt;/font&gt;&lt;br style=&quot;font-size: 14px;&quot;&gt;&lt;font color=&quot;#000000&quot;&gt;10.0.1.0/24&lt;/font&gt;&lt;br style=&quot;font-size: 14px;&quot;&gt;&lt;/b&gt;&lt;b&gt;172.16.1.32/27&lt;/b&gt;&lt;b style=&quot;font-size: 14px;&quot;&gt;&lt;br style=&quot;font-size: 14px;&quot;&gt;&lt;/b&gt;&lt;/font&gt;" style="text;strokeColor=none;align=center;fillColor=none;html=1;verticalAlign=middle;whiteSpace=wrap;rounded=0;glass=0;dashed=1;sketch=0;hachureGap=4;jiggle=2;curveFitting=1;fontFamily=Helvetica;fontSize=14;fontColor=#9933FF;" parent="1" vertex="1">
                    <mxGeometry x="571" y="306" width="135" height="59" as="geometry"/>
                </mxCell>
                <mxCell id="52" value="" style="whiteSpace=wrap;html=1;glass=0;dashed=1;dashPattern=8 8;strokeColor=#E6E6E6;fontColor=#CC6600;fillColor=#E6E6E6;rounded=0;flipH=0;direction=east;" parent="1" vertex="1">
                    <mxGeometry x="639" y="367.5" width="120" height="159" as="geometry"/>
                </mxCell>
                <mxCell id="53" value="" style="edgeStyle=none;html=1;fontColor=#CC6600;rounded=0;" parent="1" target="57" edge="1">
                    <mxGeometry relative="1" as="geometry">
                        <mxPoint x="503" y="480.41982182628067" as="sourcePoint"/>
                    </mxGeometry>
                </mxCell>
                <mxCell id="54" value="" style="aspect=fixed;html=1;points=[];align=center;image;fontSize=12;image=img/lib/azure2/compute/Virtual_Machine.svg;glass=0;dashed=1;dashPattern=8 8;strokeColor=#666666;fillColor=none;rounded=0;flipH=0;direction=east;" parent="1" vertex="1">
                    <mxGeometry x="664.5" y="406.5" width="69" height="64" as="geometry"/>
                </mxCell>
                <mxCell id="57" value="" style="whiteSpace=wrap;html=1;fillColor=none;strokeColor=#CCCCCC;glass=0;dashed=1;rounded=0;flipH=0;direction=east;" parent="1" vertex="1">
                    <mxGeometry x="504" y="365" width="258" height="165" as="geometry"/>
                </mxCell>
                <mxCell id="56" value="Az-Hub-lxvm&lt;br&gt;10.0.1.4&lt;br&gt;&lt;font color=&quot;#cc6600&quot;&gt;&lt;b&gt;(100.64.3.4)&lt;/b&gt;&lt;/font&gt;" style="text;html=1;align=center;verticalAlign=middle;resizable=0;points=[];autosize=1;strokeColor=none;fillColor=none;fontColor=#000000;rounded=0;flipH=0;" parent="1" vertex="1">
                    <mxGeometry x="656" y="464.5" width="87" height="55" as="geometry"/>
                </mxCell>
                <mxCell id="58" value="Subnet1&lt;br style=&quot;font-size: 10px;&quot;&gt;10.1.0./27" style="text;html=1;align=center;verticalAlign=middle;resizable=0;points=[];autosize=1;strokeColor=none;fillColor=none;fontColor=#000000;rounded=0;flipH=0;fontSize=10;" parent="1" vertex="1">
                    <mxGeometry x="703.77" y="365" width="62" height="36" as="geometry"/>
                </mxCell>
                <mxCell id="59" value="" style="whiteSpace=wrap;html=1;glass=0;dashed=1;dashPattern=8 8;strokeColor=#E6E6E6;fontColor=#CC6600;fillColor=#E6E6E6;rounded=0;flipH=0;direction=east;" parent="1" vertex="1">
                    <mxGeometry x="509" y="367.5" width="125" height="159" as="geometry"/>
                </mxCell>
                <mxCell id="60" value="GatewaySubnet&lt;br style=&quot;font-size: 10px;&quot;&gt;172.16.3.0/27" style="text;html=1;align=center;verticalAlign=middle;resizable=0;points=[];autosize=1;strokeColor=none;fillColor=none;fontColor=#000000;rounded=0;flipH=0;fontSize=10;" parent="1" vertex="1">
                    <mxGeometry x="550" y="366.5" width="89" height="36" as="geometry"/>
                </mxCell>
                <mxCell id="61" value="" style="aspect=fixed;html=1;points=[];align=center;image;fontSize=12;image=img/lib/azure2/networking/Virtual_Network_Gateways.svg;glass=0;dashed=1;dashPattern=8 8;strokeColor=#E6E6E6;fontColor=#000000;fillColor=#CCCCCC;rounded=0;flipH=0;direction=east;" parent="1" vertex="1">
                    <mxGeometry x="545.5" y="406.5" width="52" height="69" as="geometry"/>
                </mxCell>
                <mxCell id="62" value="&lt;div&gt;SKU: VpnGw1&lt;/div&gt;&lt;div&gt;&lt;b&gt;AS 65003&lt;/b&gt;&lt;/div&gt;&lt;div&gt;BGP IP: &lt;b&gt;172.16.3.30&lt;/b&gt;&lt;/div&gt;" style="text;html=1;align=center;verticalAlign=middle;resizable=0;points=[];autosize=1;strokeColor=none;fillColor=none;fontColor=#9933FF;rounded=0;flipH=0;" parent="1" vertex="1">
                    <mxGeometry x="505" y="473.5" width="128" height="55" as="geometry"/>
                </mxCell>
                <mxCell id="63" value="" style="aspect=fixed;html=1;points=[];align=center;image;fontSize=12;image=img/lib/azure2/networking/Virtual_Networks.svg;glass=0;dashed=1;dashPattern=8 8;strokeColor=#E6E6E6;fontColor=#000000;fillColor=#CCCCCC;rounded=0;flipH=0;direction=east;" parent="1" vertex="1">
                    <mxGeometry x="727.25" y="519" width="38.52" height="23" as="geometry"/>
                </mxCell>
                <mxCell id="95" value="2-Config" style="" parent="0"/>
                <mxCell id="96" value="" style="shape=image;verticalLabelPosition=bottom;labelBackgroundColor=default;verticalAlign=top;aspect=fixed;imageAspect=0;image=data:image/png,iVBORw0KGgoAAAANSUhEUgAAAeYAAACUCAYAAABGDoqxAAAgAElEQVR4nOzdd3xW1eH48c999siTPUhC2CPsPQUEQUEBFVERt9bWOn6tq1Vra9FaV/u1ThzgooqiDGXvjUDYmyRAQiB759nj3vP7I0DyEJaDUTnv14sXT85z77nn3HWee89ShBACSZIkSZIuCYYzfen86iF8GV8CoI9tguPuTzE27QWAb9t03N89i1ZTjGK0YL3qcewjngVAcxZT88ntBHM3AWBqNRDH3Z+gcyQB4J43Ae+qiYigD31sE+w3voq50ygAggfW4PzqIdSKPBSjBUvvO4i4+T8AiJCPmk9uJ7BvKQDGZr1wjH8ffWIbADyrJuJZ9ArCW40uMgnb8Gew9v8NAGpJFtWf3I5anAWApfvNRIyfiGKwNMxrUhsc498/dV6tUVgHPXz6vLYbhmP8+79MXj8cS+DAmtPndd4ERNB36rx+eBNqRV6DvIqQD+eU+/Hvmnsir1H3Tz0Rr/eHj3HPnYDwVqNYo7ANfxbblQ+fiLdmyv2E8neeyGvk/VNP7EPX9Mfxrvu47nwZ/z7GVgMB8O+ai2v643Xny5UPYx854cQ+dE65PyyvkfdPrduHC1/Bu/w/J/Jqv/EVLN1urt2HhzfhnHJfXV5734Fj/Psn9uGvKq/1zpdT5bX+tWFI7Uzk3Z+c8tpQrFHYR0343742LsH7QPWHY8POl5Pz6ln6xonzpX5e5bXxv5vXBmVkvbyeaxlZP63HnbZgFj4nhtQuRIzpUhcY9J74qNObsA19knoBdet6qjB3uwVzt1vC4sORBJqKLioV+6gXT3ynKErdcloI65WPhqcl4EEx2RCuCkzp12BKv6buO7+7LgnWKOwjnquL12Q/8Vnz1mDt/0B4vN5qFIfl0s1rp9GYOo2u+04Nhue1Xrw6W0x4Xk+Kl6APDBYI+jC2GoSx1aCw5fX14gnbhxZH2PYtve8MT6+rAiU6BeFzok9sS8SY18PydyIeoTXch5oKOj3CU9Uwr56qun0YER+eV72pbjm/q+E+9DlRLA6Eq+KMeVUMltPmVfPWXLi81j9fTs6r0Rq2DXltXDp5VUy2sLw2OF9CgWMbrc1r/fNFMVrCPp/2fAkFTn9tAPro1F/3tXEx7gO26DPn9UznC3UvoM/l2tAnd8S3/lMs/e8/8QOwdj+d9Cpbcxaj2GJQ6mVakiRJkqRfVvDAaqreG0X0Y8vCCmZd/YVEyEflvwegVRVc8ARKkiRJ0uVEscdhveI3YYUynFQwazUlaDXFFzRhkiRJknQ5MiR3ONF2oj7dKZaVJEmSJOkiCSuYdZGJKNaoi5UWSZIkSbpsqKUHcC98pUF4WMGsGCxEPTgTXUT8BUuYJEmSJF2O1JIDeBa9QvDwprDwBt2lTq6EliRJkiTpPAr6wv6UdcySJEmSdAlp8MTs/Ooh7COeQxfT+LxvXIT8VHsDRDoc9X4hCLwuF8Jkw2bSn2Ft6bigz4VPM+Kwmc+4XMjnxOnXER1lRznjkueuqKiInEMH8Xg8GE0m2rfvQHy8rAqRJEk6K50OxWhBn9QmLDhsgBHNWUz5862J/etO9HHNzjFmlf1rF7BmdwHoBfEdBnFj/3bndOP3H1jB4zMyeOGpp0k4UQa7mf5/b+Af8AB39Ek+w2YrWfX9fDLLXCiGeAbfMprWjp84KIqngPnfLSLfHQKDmb7XjadTkvFHRSGECBu56FRCNUdYNGchBT4dekWgBky0v2o4V7RJ+mnpPmbbd2+wyN2dZ+4YfKqUIYSCokDeivd5e6ODF5+5E9splvyxtm7dQt7hw7Rq1Zq4uDj2799Hfv5ROnbqTNeu3X6BLUiSJP2KCQ2hBk4M8Xlc+AAjQf9PiNnDhgULKbS0oHfvPnRomlg/RhrMkKFpdZ/VIL6QikEBrd46QZ+PQEirt4pGA648Fi1cT2S3PrQz5vD5Z7PwnGYz9dNzquBg8V4WrthDWu/edI6uYtInH1AQrLfOWab5EK6dvPfqm+ypqregaLglnTma9G69ifHuZe6BEnr37U6L5LjaxU/8Pjr19sQpMnR8FTXoxxeoG/ZOqxdB8dpZvPLxXDxCkNL/Tp576EbqTgHtlPtDnC3DwP59ezly+DCjRl9Px06dMJlMDLlqKKOvv4GdO3ZwOO/wWeOQJEm6rCm6BoUynPQqWzGe+VXoqQmM9jg69hlAl3a1GwgWbuPjr1ehs9kpOJpHxxsf5uYeyeT8MJu5G7KoFHaG33kXve02DJU5fPH5Z9Tk5JA6cCx3XN0BvV6P3mgCXwULpk5jT4kXS7N07hwznGjzsUdrTcGR2JS+vbrSxHSIRYtCBABRuIupX31JpUjD5HGSdO1d3JpWyjtfryYy0kphXh5pg+/mjitbnxgrVQgdsamt6N+lC5HJHmZuXYqmhyNbF/HV/AxCepWk7jdx5zWd2TX/U5wtbmBIu1g2zf2C4ka9aVK1knmL5nPUkcSjD96Kb8sM5v+QTVBJYsC4cfRJiQRAZ3bQsn0XRGELVlmT6dK1I7sWfcrn20pIbt6Oq4f0ZPOc6ewtdxLbfjj3jOrJvgWfsTyrBocoJ0+05Q+PjMdWupmvvl5FvlfQZ8ydNI6wYfSbEH4fS2d9zvbD1dC4C78d05s1S2aweIuRximNGNikho2HHNx2fQ/2rvqOOWv2IPSCpgNu59aBrdg49z1W5wriA9Xk6Zvx4O/Hk2pu2AxB0zQOHDjAFQMGYjAYCIVCHDl6hLj4eKKiohkwYCC7duygaZOmP+F8kiRJujyIoBfNWYo+tklYeHg/ZkcStmFPoNQbOP/sjBi1KuZPeo03/u8dluwuQgmVsX7tbtrcMJ4/junAyu+/oUSDpBZdGTHqatoouXwxeyMhs4lQeTVNrhzLU38Yx8Eln7GpoJoIsx6bSWHjwsksrYxixKhhVK2cwuTl2XWbNZkIlOxj0r/+xbOfrKbzsMFE42T6p1+i9LyfPz56O1FVuezOq0R4Clizdg+trr2Nx397HTu++4yMkrq3A3qLmZrcDN54+SVe/PAHRt/+W1KLt/DOtLX0u+ePPPnIXRQv/5LluRU4iw9SUFW7bmnOPvaWhOgwZDD9uvdm3F23EH94De9M307nITfQzZbDW+99ieukB1B/MIQWqn3Czdq+kQPGVoy76TpiYyLpPuA6Rl7Rmq3zviDTDSVZG9jmTuD2h56mjWcHc7YeZPvCmWTau/LEU3+kX2oEPn8IITQUnYku/QYy8toBFK+fxcI8A1cPu5Zug65h3DXdUA7vY2duBZVHNvDRwn1c9+BTPP6b0ez6/hO2lAepzlzPgWAj7nrkj6RVbmP6hpxTHvFAIIDH4yE+IQGAUChEdlbdsUlt3JhQKHTKdSVJkqRawQNrqHy1J5ozfMTNBo9D9pET0EX+mDpPFVVnp/uwMYy//RZ6t4wj6BU06dyT9o0iiElNI1ofIOCpYM36ZcxZvILiqiAWBKFgCGu7vgxv4cAc354mqQqHCosxGQ0ooSCFR3JRtGo2ZWSQ3P06+rWOq9tsKIQhKpXBY+7gqUfHsnfJ1+QeLaLQkMqV/dtgNsfQq1cHrEZB0G+gTZ/B9GzkwJbSjfaRguzyutlotGAQW6N0brz5RhyBXI4YHajF2TjSOzEwLRJzZEuGtW9KSX4RIasNs6n2RYPVZsVk0KPX69DrDdjtRjwFOdQEjeTt2ESOvgmjh/TGdIaqZ2NUPN27dMFiNFCx6wdmLZjNxh0FqHodalBgiGxEv169sZttNEmJorzCT6/hY0l1ruC1SdPI1SzYdKDX6XGV7Obb2fP5YcNWVFUHmoZOb0RvMmE26NEZTNjsdvJzMmnSsy+dEqyYE7sxuGk8BQVVuGOb0rlHV8zmCFrHx+F2u0+ZZoNBj9AEHk9t5YEQAr+/rrm/x+3GYDjjjKKSJEmSpiGCvhPTkB73C3SX0ggEVOyxSSQnNyLKakSoQXxeH0GAoJ+AYsSbvYcZK3K59dHHGNk5Ga/Hh06BykM72FWqESrbTE4OdGyWhtPpJoBCYmwKMc37cN/9D3D3fTfTKyW23mZVgqqeuJQUEuJtuCrK8CsROGoOsHpzPppwsWXTbjShx2BWKMrdT26Nii9nPes9Kl2S60Y4E6EgIU1PYpuO/P6e4WR89B57zE3xHtxHRrEXzXuUHw4cpVFaEhEBP9kHc9HUKjZu24k3KAAzIdVDjUtgTkwk3hHPiHvv5zcP/J7RfVs3aPquhQL4grVPlFrQR8AfAlTmff8F3k638sCDo3DgJaCCCPrw+2uf0P2+AKq/CldkGx577Dm6VW7m61U7CVr06BXIXDGfncbuPPC739PMDl5/CL1JIeR04RMCoQbxejwkN2lF3tZNZFWraJV7yCisIq1RJCGfC7e/dqo6r8+Hesp6ejAYjKQ2bkzGxg0AWK1W2nfocOL7dWvX0kS+xpYkSfpJ9BMmTJhQP8C/ay76yKSw+ULPpuzgDn5Yn8HOrevZXiho3SyK0gpBhx7tsfsqyS7w0HPwlUSXb2bO0u3klntIatuNPi2jyMrcT0HWblYs3kWrkbdzdfvGFBw8gKl5dwZ2b8G+RdNZsnwtW/OctExvjeN4HbMSIHPzejI2bWLbhiN0GXs7/dqkkd40kh+mT2H1/kL8ZVWIlj3pn+xj5YpNFJQeZM2qbXS/4SGGtY490XJc81WSUxykTY9OxMa1QZ+3ni3GjozraODbT2ewccduUgaOZWTXZqTGR7J13lcsPlCCoo+kTZcetE9JQ5RsZ866g3QZMZomNdv56tv5/LB5H4ZGbWgaH949yV2eR7GSwIB2LSk9egBdYjs6pMUSE62wc8FCtmXnEjIl0PeKvihlBwnFtaNDWjQVBbkYkpujHFzJ5KlLCMSkM3pkP2w1BVQam3Jl73TyM2axeschXMJM+559SW+VzNF1M9hWFUezVCNVvggGDOhPjCebGV/PY/PuQ6RfdwdDWieQn7sfY6POdE6NpiIvh2Bya7qmxZ58uAFITklh3Zq1FBUVEWG307pNG0pLS1m+bCnBYJABAweh08lu8pIkSaejlh7Av/VbbMOeQGeveyMc1l1KeKsp/3trYp7O+BHdpWppoQBBVQOdofZV9GmW8/v9mM0nNTJT/fg1E2bjqdfy+XwYTRb0p7jPB/0+NL0Zs0EBBKqqoNcDqHzx76epGvA4D0Xu5JlZhfzp6TuIUsyYz6F7tNBA0QEhPz7NgCWsT7WKL8BJYRAKBtAZTegANeAjqBiwGH/kK91QAL9iOksaBQG/H53JguHkXSaC+IM6zGFp0wgEBSZjeKRawEdQMZ92v5+N3+9ny5bNHD1yhIiICFAUkhsl0617958UnyRJ0uVEqy4kmLcFc6dRYeFhpYbmrUacNDTYudIZTJjPoQxqUCgD6M9cWFosp396N5rrfyfYOmMiqyr1xDrLOGDoyKO9U1G3bwFFQW8wc67tzpXjPwIMZhpuXY/lFF2mDca6QL3Jwk8aHsVgOoc0KpjMp9knihFzg7TpMJ2iW7bOZDnn/XEqZrOZ/v2vQFVVvF4vVqsVvV4OCiNJknQudFHJDQplOMXIX//bdHQePgb74SKCip1b2rfFoQOtw1Ceaa4RfbGT9yul1+trn5glSZKkny3s5bA+tkmDocH+15ijUmjfuTtdOrXFcezhTWe2Exfj+GlPsJIkSZJ0HoRyM6h+byQiFP6musETc8xTa1F0P/9BOhAI4HQ6ZX/Wn0hRFKxWKw6H42InRZIkSToPNHcFgQNrCOVuwthq4InwBiXwqYYH+zEqKyvJzs7G7Xaj0+l+sckSfq6zDzJ56Tg+7vbx/1NSUmjduvXFTpYkSZJ0ATQomEXIV/vE/BOemvfv309ubi6tWjSnd9eOYPolpkq4fIVCISoqKsjOziY/P58ePXrIJ2hJkqRfuQalb+UrPYl6eO6P7i61dds2aqqrGX71VSh6E0uzvSzeW8iusgB+TXBRHp0FKAq0iDAwuGUEozo6iLL+79Q0GwwGEhMTSUxM5NChQ6xZs4aBAwfKwlmSJOlXQOeIx9RuGIZmvcLCw/oxqxV5VPyj44+c9hFyc3PJyclhyJArKa4R/Gl2Af/dXs1ph476KTRqC/f6Bbw49u9s41goCgjo0dTGm6MbMaCl/ZdL1wWUk5NDbm4ugwYNkt2SJEmSfqV+9tBMgUCAzMxMevfuiduvcNt/D/PfjErQK2DR1/2z6sGk1BWmQgGzPnyZM/zT2fUoVn2DOHX2c1jfrAOLji2HPdz8+WE253rOlq2zEpqGOMeKa3GKBYUQ57z+cc2bN8dqtZKdnX32hSVJkqT/SeGzS1mjftRQnAB5eXnExMRgtzuYsLiYlVkusOkbFvkhQWSEjbF94rh3QBz39osiwRo2EfOpaQL0et67OZVByQYIHivNAhqtGsfz1U0JRCja2eMBsOgorgnxyOxC3P6zrxBwFrB23hy+m/0ds2bNZU+x99g3bia9/DgzdhefcX0AXHm88s7L7CgPD942cxKT5+88h0SHa9euHQUFBaeeo1qSJEn6n6FVF+LbNr1BeFjxqVijiLx/Kjr7qcdHPpXy8nKap6VQ4tSYsr0ajMqp65MDgnZpibw5xELAF8TlF7VlaUAFrwYBDXzHChtV1P7tV2sLYh00jzViQtQu49NABavZQKtYA3oEBDXwH/vuTGWWRU/GYQ9Ls1xnzVvZ3vl8/u1a9DYbNlHOB2++wNSNRwELo+98lEHNYs6+g1Q/+SVFqCfV5rsrSyip+vFP7pGRkRgMBqqrq3/0upIkSdKlI3R0B84p96OWhM8u1aDxlyl92I+K2O12Ex8fw9JDXkprgmA4zdtxpbaq92B+DVNXlYHeBDYTo/okMqCRwIuRaLefl1aU40+N4onOdkx6OLSvkk9yQ1QHBT17xDOoI5h8Hl5ZXoEvJPCFBE6fjl7pcYxtrcccCvHlmio2+wSnHFFEATTBmkNubugUeca8aRqkdujL6GHXANAr7UuemjONUd0eY3/uPlJiWuE4uJ7P562l0JDI+NvuooVvJ199v4rioI2BN46jXyMrkbog6+Z9y+qjOSR0Hca4a7pjMhgxGoyASubK2SzedBB9k46MH3s1MYbT1x8rioLBYMDlchETcw4/DCRJkqRLmlZTjD6xbnCvn13HrGkaikFPkUdFBLQztr4OhFQap8bwlzGNefLqSCL1cGWHOIYnw9Q1VaS1i+ORdhYifAF27qphbbnCYyMSaWsSYDHSLxDg4x+qSG2dwF/72HEHNfxBjfYtY/nrACurdldwNDaKz6+PJVoLnb7zsgZ5rrMPfKIoCmrQx/Hn2tj0PjQxhShxOVmzegEHjmQx7dPpGHpdz13X9SVaU1GVaHpdM4y+iS4mfzEDv2LFWHyYUnsrbhk3kqPLP2Pu/jKsZiMms5WizAV8suYI/UcMx575HW9+ufqsb+UVRZGvsiVJkn6lGhTM7nkT0GrOoe70GLPZTNDjJcFqQDEqZxzJQ68ouN0Bfsh180N+EL9QwB9g+i4P2flu1lUHae8w4zDq6d0nin5JCha9QiuDQsDr5/3tNeTmupixz0VcagQ6IfAFBX1b6kmy6OjZKpYor5+lZQHEmdKiQKrtJ7RqDvlAUbAZTVjMZhR7Mr36tuPgkunszgsQG2+goOwoy+bMZktWIcIbIOD3EmjciVuu6kZq0w707RbHruxMDAYDBqORo3u3U15TxKY1a6jQN6FZUsxZe5ZpmnbqyUAkSZKk/x06HYrR0mAo7PDZpZzFeJa+gaXvveccb2RkJEcLi+mSmk6sw0i5M1Rbz3wKRoMOr9vLyj3VtQOY6CyY9Ap2A2DQYVHAbzXy4s2NODAnh7+H7NzYrLagMpsMpMbqwWCgV4qN0NEC0EVhNyrk+wWaM8B/FhTgMpiwRSp4tFM0QIPawlqv0L/52btMCS2EpuixAQSrWDh1FhGdh5LiMOL1B/C6fLQa9QAv9cvkb8+/jaaMZ+f3M+jzl/9wbelcHpqSg6roCFYXcLgMOjn8HNhbRPMxzQnt/YFgMEikI5bE1t34/e9GAhD0qWcsmIPBIIFAgKioqLOmX5IkSbp0GVsNJPZvu9A5ksLCwwpmEfT/6IhTU1PZuXMHV7VK57bOUby3shSMp3gaVcDpDWCKiebVsVZCimDNqhqKa0KEArUDkLh8GiXVfrbuqWF85zhei7KiukJUq4JCl8r4Pgk0a64yQPPy2GovSstIagKCpTtr6Nk4mbfHp1IdMrA9s5TP96m13bNO5lfplGbjmrZnH6TDHJmAJ2sFb711lGqfn4TmvbhvVH8QTiJiEkmgnLmTPyPb5SCh6xV0ad6c6I7JrJnyJgd95Vij0zEZzDSyGVj7zb/JDrhwxw3g4a4p5GVaMRugVZ/RNNn0Ef98ZQ+WmDiGjhxH17TTz9R05MgRzGYzVqv1xxwmSZIk6RKjGK0oxob38rABRjRnMeXPt/7RA4ysW7eOxsmJxDZuzdD3DrIpx13bZeqkclGnKERa9URbdCgIqqtDuFBQ0PCHwGTSoQtp+DRIijFiCGqU+zRCmkCvUzCa9CRYFEorA7hCoDfpMOvB41PBYCAtyoAOlcKqEIFTPXf6NaIsOmbf25RBbc5hmkKh4qysoMbjRzM7SEs4/pQqCAQC6I0m/DXllNX4iE5qTKQJ0LwUF5RhiIwnKsKEXlEIagLVVUa5U5DYuBEmIBQMoKHHZNSD6qUgvxSdNYrEhKjTVvwHAgFWrFhBz549iYuLO+fjI0mSJF2C1BAi4Eaxhr8BDSuYAZxfPYR9xHPoYhqfc9w+n4+VK1fSs2tHfNbGPDojj+93VZ+iIZgAtd6feoXaUTaU2tfO6rExNBF1I30B6JTa/szHokB3bHlxbDmdUvf5eLwn0wRtki28OaoR13Y4c2vsS1EoFGLNmjUkJyeTnp5+sZMjSZIk/UyBfYup+fTOBq+zG3SXcox//0dHbrFY6NOnDxkZGbRoWs3Xd7ZlwYEEluypZme5n3MYy+O8UYCWjtqxssd2jSTedqnMd3XuysvL2b59O3FxcbJQliRJ+rXQNETQh1qcdeaC+aeKiYlh8ODBbN26lfy1K+mcnMiggXHojbaLPuWiXlEw6kME/eWUui92as5OCIGmaTidTkpKSvB4PKSnp5OWlnaxkyZJkiSdZw0K5uCBNRgad0Wx/PgZjMxmM/369aO6uprCwgKyc/IIBgO/SEJ/LiH+t+Zk1ul02O12mjRpQkpKipy0QpIk6VdKFxneKjusjlmEfJQ/35qYJ9f86GkfJUmSJEk6d2rZIfw7vsM29Imw8LAGwFpNCcIrx2CWJEmSpPNNH9+iQaEMv8CQnJIkSZIk/XLCp32MTGzwrluSJEmSpF9eKH8Xzq8eahAePu2jwULMU2vRRaVcsIRJkiRJ0uVIq8rHl/ElwcObwsIbtMo+ecxOSZIkSZLOo6Av7M9T1zFr6imDJUmSJEk6vxoUzFVvDUWtOnox0iJJkiRJlw3FbMeQ2hlDs15h4WGvstWKPIK5m46NXy1JkiRJ0vlibDWQmKfWNgiX3aUkSZIk6RIS3l3KGoVitFystEiSJEnSZUNzlRHYv7RBeHh3KWsU9htfQTGfw1zFkiRJkiT9ZKHDm6n+8CbUkqyw8Aavsq39f4MuIv6CJUySJEmSLmdaTXHY37KOWZIkSZIuIQ0KZs+yN9BcpRcjLZIkSZJ02dEntQn7O6xgFt5qPIteRfjdFzRRkiRJknS5MbboS/RjyxqMuBk+7aO3GnHS0GCSJEmSJP3yFGs0xqa9GoTLOmZJkiRJuoSEFcz62CaYWg0ERZbXkiRJknQ+BbNXUfGPjojQWSaxiHpkHvrYJhcsYZIkSZJ0ORIBL2pFHqHc8GkfL9ijcVH2NlZtziRwPEHOYrZt20q5/0KlQDobV2EmC+fPZemyFaxevpjZ85eyv7DmYifrF+Mry2XZipXsL6nfuNHHvg2rWb8nD+0c4vDvnceDz77EvqrzlUqpNGcXm7MLL/BWVea/+yL/+HhlWGh5zi6WrNhAkaduxj3hK2PTimXsPlL5C2z2CP964hE+3Zj38+O6oFSO7NvC4oULWDBvLks27MZ7AadYOLzgHf746kdU1Avzleewdvkisoo9dYHCy56MVfxwjtf3mZXxzpO/44O1h352TGfToGBWK/IQAc+plv1ZNk57jdFj7+bTTfm128lZx4v/eIFtZb/4pqSfyFOYzapli/jw9ed44uUPWLJkFUdqfv7pfKko2zqLB8aN5U8T5+I9FubNXMzv7xrLM+/PP/Gj8UzMqpOsQ4dxB89nSi9vGd/8m+emrDzt98GiHXz6wTR+2U6dgvL8XHILw39xbf3uHcbfOI53Fuw5EZa9+EPuvOFOPli86+dvVhfPLQ89yvC2iT8/rgvKw/SJz/OXd6ayYuliVm/ci185xWI1h5jy6Ucc8J7iu5/BV3GUA0cKCdULK906k0fuuJaHJs7m+OXpylzMk3dcxxMfLeDnPwNGcsPvH2dkh0Y/O6YGThoKO2x2KRHyUfXWUKL/sAR9XLNfcKsCbHF07+plyXv/YcB7/6aDzYzVasVshlDJPqbNnMuhshAdrhrHmP4t2DbvU3b54lAP78SXNpAR6TD7u2VYu47it6N7oxNuVn37JesyS2kx8AbGDe7Iqc4L6dwldh/FK91H8d3/PcInwVG888y1rPz2E6aWDuL2Aa0o3Tyb70ui6JugsSOziihjEeszPYy84zf0bxmNv2gv30ybQ14wkmvG3UmvNMfFzlIYgZ42vbsR2Lee7aU30y9Bz5rVq1GadKWZpfZSEDV5fPPlNDKLvaT2vJq7RvXDhGDr/M+YvbWMtlE1WOwOTGZALWPh1C/YfDhAl+G3MLpX84ubwV8Jg9lKhLCBVsncz2YSTIkld8t2HD1u4/5hCXz93ptMnJPN/pCexx+9GcOelXwxZw1qfHtuu2csCaXb+HrmOnzRETRL74n18CujXLIAACAASURBVE5KzHbKs7fjShjEg3cOwVJ9kJnfzCazyEPLAaO5bUgnTGYzZqM+LC0hawwturXm6Jp5FI7tTDKVzF+fRXKnTsSZAFR2LPyGpVuyURPSufW+W0gt28n0+TuJSDWw84f9tLz6Nm4b2I6dy2axu0yHxZ/D1nwT4+//HR2SQmRu2U3i4DS0TQtYleXCpCtiV56FW++/n44Jekp2LGbyrB+Ibp2OvcZD+zHj6R5RxKyvZrGvNEjvG+9jePsLXbALQgY71zz8Ci+PbAxATdZy3liax90P34t/w0zm5RlJKV7HxCmLWHsUnvzj72hUuIb/zlqFN6Y14+4dRxPvAb6eOZ8aEUPj1h2I8+0nyxONPn8nhw2tePCBm4nFyYpZU9mwv4jIFldw9/hhmMxmLCZj2D1fFSY6dulB8cH1rC+5hUGJejYuXYe1aXfM0RZMQMH2xcxYspkqJZbrxt9Hj/hyvpqxGLsjnvzd6wm0vIbf33ol3l2L+W53JXGGAFv25NHrlt8yskMUuVu3Y76iCdGlK/h2czFxOj9bD5Qx+q7f0rNpJK6cDXzyxXyU5HbEGCpJ6ns7Q5t6mf3l1+woCdJz5N2M7FJXsOti07Bd+XCDltnh3aVqShoMDfZL8fsDpI98kHvSPbzy0Vz8xgiMOgV0oAaCOJKb0ybKzeRXX2JLRYjs5VP5cM4WohsnsvTdZ/jT9G2kNo5g1rsvs/SIl01fvM7H64tp3jyRWf9+hkkZ5yfdlyNVEwit9reo/uh6Pvvye4II5n39JZkuBXf2ct595wsqI9Jo7t/F86+/z5GSAia+/ip79UmkBvbyt7+9xD7XRc7ISUTQhy39Sq5uGeS7ZbsgcIAV2YLh112BQQW9Ws2HE55iYX4E3To1Y83H/+SjFYco3PQVL06cTWKrlviL86h0hYgweFnwzj+ZsVejZWON9154lu/2/3pe+19sOp0RhJOFn7/D9zucpCUb+Pbfz7K0xEK7Ns1JSkihS9d0xJ65TPj3pxhTW+Db9BV/e3cmxaUH+Oyjj6lO7EH31oms+2Yiny/JIrFJCmsnPc/UzSWoaghLQnPap6hM+tfrrCmpxm4xNEiH36/SfNC1tNQyWbjThXffSrJ1LRnRpzUhbwBQUZUI0tPbkrPsU17/egNeVw5fvPs2W8pstG0Ok/71MmvKXBRlzOHdyXNQ4lsQW7CMZ96Ygle4WPTFF2QcraF09xImTvqWYGQK/owpvDl1Kd7yvfzzpTepiG1FkpbJh29OIctZwcK3X+DzjEp6dksnynAx3mopWPWCnfM+YfJHHzBz3T5sjVKp2TSPiZ9/waT/zsSb2IJ2bZoSn5hEh+7diDiyjL+/Phk1uTm6Hd/y5/9Mx11dwheTPiLL2JJeHVuRuehz3puxloiUpuz8/k1en5cJqoZiiyW9XTMyPn+Nj9cVYLRYGjyICb8PR7sBXNVEY8HSHeDOYlGOysCr+2FS/QggFILUNu2JOLyUf7zzJV6XizlTJjJ9azFNWrdi42cvMemHArxHt/LmxEnkGRNoZS/lzRdfY5+zkjVffc6awzV48jKY+MGnlFlicRxdyjMfzCTgKuKNf77EflJpHOlk6vtvkHG0khXvv8CH68vo0b0jUcbwY2VI7oD9xlcb7N2GZ+L5ogXxqNGM/sPjrHjo70w0DsBks6ATUON3U3K0CNUHOlFIcVkAo91Bj+5juOnWrmQumUZV39u45VoTG9ZvIis7E235ekJJQ/F6VVq2a4XBLyurfxmidjpuUVunNvD2e0j581es2bqOXe4Ybh4xCPOsxTTrey13jRwFg+NYeP9nrFq3kK37imjeRkU1J9AmzULAB1xC86EITSOgi2HEtW35z4yZfBuMQW3VnyGJeWTm66gqy2DVbiOPz3mI3maIP7qW/65dhNW6B9tVD/PwbVfDfsG3/9qA/2gey9ZvRrRtgy+go22rlugCHiDyYmfzV0KA0LBGN6ffrXdyc/Mytq64ldxyK4O7tiV+npurB3Sk+NP/knk0SIegD0ej5jSL1FPjFjRL78+oazoRTxU6YyJXjL6ZG4c1p3jVNHKOVOJLCVBddBhnSMXs81JUWY1Nr0c5qYwTIT/Ed2RMJx/vz5uG0bifloNupcWGT1mLDvxuql0lHCgOYNebqDlaSLXORGKLnoy78wbaMZzsZXezLSuXltZoulx1FWOuGwXtQyx4bBVHfEOIjInGYlAQWGjTeyi3jxxLn4rV/O1QHpkZBZRGdOHdP9xJLIVsm7GTUMBE275X0/TQEtZnteP+vtEX4fgooEDA48RZZcbkCWCI7MLTT45j+Jjfk3L/JL4e3AEO5hMbH8+Qkb0Iffs3dhd4aKH6sTZqTlqUCY8rSHzrjoy8tj8JsaAYLXQfehPXj+lJ9e5lzDx0hKDPQVVpBUXuIBabi4LCKjSLAcJeZINAxU8M117fgbemzmY6NvRNBzAwLZPl61UEAdxONwVH8sFkorKyGJc7hDmpBSNu/w0jW4M1ZzGTN2dxfSsjad2u5L4bR2CjHTtue4Ath1xExkajM+gQQkdq5/7cfuNoQvGH+ea/FeTvXs3OUBov/e1B0oH8NdOpCAla9xpK670L+WFvEff1ijqnvRs+7WNkIrrIpNMt+7NoagifpwZsrXnqd9ey7Iu32F5mIDrk5stXn2aN1p5rBnfFLFyomoJQg9SWEB5UoRBl1gNe/CGBTm8jJsaEKbE9Y8ffxZ+fmcAd/dPOS7ovR5oaIqgeu0Ml9eeGToL3Xn0btcUwekdCQNWoyssiu7yao8vXUWmOJb1JEwxGA2ldr2P8bx/jhScfofMlNheK0FTcTjct+l5HT7bw4gerGHzdCKI1F15/EKstlThjORs25uKuKWXLwTKim7SiabyViqztlFZWsWf7NsqdHowOBxE2G9HNOnDr+Ad48fmnuLbjeah7ugzVnX8CNSQQqg+CPkLCgBAaatCP01nI4Qo3hugYTBFRdB95C/c9/heeuHM0CYoTb0BQ+9NSRVMFQgsCGiHNjNlcybev/oNFxUkMv6Y/Dp2KpoGqhgip2klpCeJya3S67ibE+neZuEHlhqE90Dxu9FYLh7d+w2uTltJ96AjaJ9gIBlQUvR5vTQF7D5ZTmbuWrVUaKSnx2LQAxYf2U1xVzfblG1DjU0g0mQn6A6hCIFQBmoYG+AMQ0vTYoyLwlx1gZ345Jbs3kF3mQwv5SOl9A39/5gmUrZN55P++/wUaNv3oo4QnEKL1lTfz0P/7Azf3b4NGgPXrtpHSZyjmozvZ4dYAFVdNDYfzqsHmwGB10PWam7n7/z3H3+4bRbzRQyAQRA0BCIQaOvG2LhgS2M0msme+xr9WFDBk+HAaRwQJqhpCCxEMqdRvbyY0FbfLTZNeIxmsbORvEzfQZ9S1xKku/IqF4OEM/vzqh1i7DePK9smooQDo9Gjeavbt30N1RQGrd5XQonljzEY97sIjZJVUUbxpFQc9STRLttcdK00FoeIDvP4giqZhjIwhWF3Irt1lVORvZPfhGkQoRHy3a/nrc4/h2Ps1j/3za+q34FJLsnDPm9Bg74ZP+2iwEHn/1PMyu5QlIooYuxmAlCtu48Hre2MKKuhsJnr2G4h7y0xmrtiLPaEZVqPAEhGDw6wHFOyRMdiMCqDD4XBgtidy/SOP4dg+laeefoZ/fvgNhV71jNuXzp3FHkVsxPHGCDquGdyXw9mHaHXlIPSAMJjAm8/Ud1/gz1O2Me6e++jZYwi/vXUgy956mj89P4HPFm/hUjsierOd2AgTwhjB8CH9aJbem/6N7aiKBYfVgMXRnj/+v7HsmPQ8f3rqaXZFD+L+sVczdNTt9Amu5Q9/eZmlmU4aJcRDbAq/e+R+3Mve4cm//JU3/juXkl9PO7mLymw/fq/QExkTjVlfe+1HRMVgRsPashftGhXzfy99hmnoXdzTy8B/nn6Sv/zzXyzJqiDCEUlUtIPa2mId9qhobKbav6yOKGymSHoP6IPIXMa0RdswRydhN+kx2yOJPHaPOs5ij8RhBuztGNqnJ+k9BtDSoENnjsBm0BHTrBudGgWYPm06OX4ziXE2FHSYFR9rp73Dn/7yES2v+w0jmjXCr+nwl+/no38/xyuLy3nkkbuJ1uuwREZiM+gx2iKIdFgRgN4agd0AzXuOYFy/eN566ik+WLALi82O1RJky3cTeeXtKZQ4OnLjNd0uwkhRehJjotj17es8/Lvf8OeXv2TTprlMy3Dy7NsfcEPjI3zyxVLUtJ4MbGpj8suvU97xLh7sH83EvzzBs/94nUW7i1EiHERHRWM6lgGLIwaH1QiANcJBhMVEcrfBtAxm8+W3c6kypxAbYUJvthMTGRGWb73ZTlSEGU1v4arBV9CkYxcGtrCg6SzE2I2YYlowuFMK62ZMZXWel4SEOHQKRJgVcldP4x9/fop9qTfx4LBWEApiDpQzfeKb/Pn/5tD7vicZkGhHb4/EbtSjN9uJdkSgADqTjWirHkf7gTw+oh1TX3iMt6csJ2SNwGqB3XM/5pV3JlNgTWfUtf2w1kuzWnoIz9I3CB4O7y6FuED8Xrdw+QJ1AVpIOGucIlj7h6gqLRJVLr/w+9zCH9JEwOsSHn9ICKEJr9spvEFNCKEKj9t17LMQwlcjCvPzRVmNW2gXKiOXgYDXLZzeumNVsWqSuOk3fxJZvtq/V056Ttz5+CRRXlkiSqo9Yeu6K4tFfmGRcPpDFzLJ50QNeIXT7T12rgSF91gag36vcJ0IF8JfUybyC4uFv/7KQbcoKi4T/mBQeL0eEVSPB1eJ/PwCUeHyXbB8/NoFfG7h8gaEEKrwuFzCrx6/9p3Cd+zaV30uUVJWIWqPoCrKiwtEYUm58GtCaCG/cLncx77ThNflEt5A7QHzeZzCc+zUri4rFhVuj/B7fcIfComA1yPc9c57IY5fC7VnghYKCH+oNh6/xy3cx+5nQXe1KCqrFL5AQPi8flG85Stx781/EBnVlaKotPJYTKr4+h+PiEdemSmqy4tEufv4dkK1eQypIuT3CLen9jwK+T3C5fGeSIe7ukpU7f9e3DDyNrEgxyNCPqcozD8qypxhZ+kFpAm/xyXKy0pFcXGRKK2oEW5ntah2H0tz0C0qK6trr6mgR5SWlh27njRRWVIgCorLhE8VQqhB4XK5TlxPfo9LuP21pUJtmXHsc3WpKKlwiUDAKzz+kFADXuHyeMPu+2rAK1xuj1CFEEILCX+g9gwI+T3CeWy/ipBHFBeXCp8/INxen1CLMsSd99wupm4uESXFJeL4UTnwzfNi7GMvipyqclFc4Tq+BeF1uYQvqB7bVu32taBP1Lg8J9LidVaL6oLN4tEbh4kPt5SIkM8ligqOirKahvcI/+4FouQxhwhkrw4Lv2B1zCaLDVP9AEVPhON4BaRCVPzxV+jHltLbMR4LsdjqlrPa7HVxmB00Srm0Wv7+GhgttmP7XmXr9x/x2qTlXPX4P2l97GFCDXhxuv04ohNOHKPjbNGJ2C5scs+Zzmgh4kSCDViOnWoGkwVDvZPT5IijwWllsJGUeCxnBkO94ChSbOdWbySdG6PZduK8stqPX+8KVltdgwWd2U6C+fh3OmITk+si0Juw200n1rPY6+4ZZmtdHJFxJ7Vk1lsbnM911wIoeuOJe5jJWnc/M9giSTp+0huBkB+ny4XeEU1SvRZKqt+DM6QSGVu/ulBfl0e99cS1ozdZsQN4DzPpvU8pD+rJ2bKJ2Ctvp3eaFb0eGqVczAYcCiarnVir/dRfG2xEH6/6NliJj7eeWC86IZm6WnEDdnvd9WSy2uv2cb0ywxQZT8Kxz7XHQ4/9pIOlM1rqwhQ9pmOf9SZrXVMXvZXExHrPrNUqbqeToNFBQmJdlyUR8uN0BbFGxVJ3lujqnUv1tmUw4zAAooZZEyeyw6nh3L+BktY3cl2HePRmhaTk0+yn01CEEGHdwms+uR37mNfQx8g6W0mQvzuDbG80V/Zqe6IVZMWRTPKcVjq3byIHW5ekkwSqC9h3sJLm3ToQeaJgFhQe2Es5cXRs9SPaIggfWds2cbCwBnNCU/r17hj2KlT6mQLVbN93iMQWnUlx1HWV8xRls68cOnZojfkMq4fTOLJ3M7tzijFEJtOjb09iT/6ld/Lm9y+lZsp9xL2YjWKo+2EQVjBrzmLKn29N7F93/sL9mCVJkiRJCiM0hBoIK5Th5PmYg7LLkSRJkiRdEIquQaEMJ7fKNp77Q7skSZIkST+d8LtRS7IahIf3Y3YkYRv+LIrpUm2+I0mSJEm/DsFD66j89wA0Z/jIlQ3a7thHPIvO8b82oLokSZIk/Y/RNETQh1oc/tT8k7tLndSYW5IkSZKkc6Qop592qUHB7N81F1OL/ij22NOuJITA5/XIwlmSJEmSfgKr1Yqm1Q4XePJQ2GHdpYS3mvK/tybm6QzZXUqSJEmSziOtupBg3hbMnUaFhYdP++itRgR9FzRhkiRJknQ50kUlNyiU4RSNvyRJkiRJunjCCmZ9bBP0SW0uVlokSZIk6bIRzNlA1VtDEaHwN9UNnphjnlqLPqbxBUuYJEmSJF2OhKeKYO4mQrnh0z42aJV9quHBJEmSJEm6MBo8MQtvNajBi5EWSZIkSbr8GMMfiPUTJkyYUD+g8tWemDqNRmeL5uLwk3s4F5MjFqNsmnbhharYuGIl2/dmUikcNI4/9/mug0fW8Nhb39KhT3+iL9hM3+cu5Cpi8w8b2LV3H1n55UQlNsZuPH0n/5/DmbeT5WszOJBbjCUhhSiz/uwrSWGKcg7jt0ZgM9TeCA5tX82qzXsxJ7Qgxhp+czi6fR1LN+1Fi2tMoq3hyVeYk0vIGonVEH688/esZcWGvehjGxNXb17giuJcigJ6dMVZrFi9kcNlPpKaNAqbU77gwB6KAzZiI8Jmmr/M+Mg7WIghJgqTAuBl6+plbM4qJD6tKTY9QJA9Pyxl455CotOaEnHS4XHm7WTpqh8o8hpIaRTH8SulNHcfR1wm4iNPfovrI/NwAXZHVIMyInfzclZuy8HWKI0oc92XzuKDlPr0OA9tZPWGneT6zbRMql/GqeTs3o7XHo/DdOGuVeGrQqvOxzb0ibDwsGypFXmoFXkXLFEnK9q9jFefeIA/v/0V5aGLlozLlvAW8s3HH7KpOIQWKmXPwUJUZxbTp86h5nQruffx7RezqQaMCe15YNyNxJ9lDtKLpWz7Qj76ciluTUXTNM7X8DjFO5Ywedo8fELDdTiLrJKqc143lLuNz2et5nI+/T2F23nnpSf4w9NvsdNVOwBD1rLP+GDBLgJlWbz1wSQOeeuO3qEN0/hgxmb8rkN89NYnZLnUE9+5CrbwzguP8dTf3mavM3w7R9dM56MZGXideXz+7odkurVj31Tx3X+nseuIk9zsTHyqyqElU/lo1kaOx6xV7uXvT97L5+sLz+OeuLSV7VzMC4//P/7y+lfUjvQcYtV/32XmzlKq9y3jtSnzCCHYNvU9vtlcgDNnHRMnT6ey7vBQvHs5H02fj1+vR6dQd0168njl6Xt4f8XBelsUFG5dxD+fvJcH3/2GmrALWLBzyRTeXbabUNkuXn/vMwr9xxYQlUz/8hu25h0iK6cMTQuy8usPmLb+8Im1vfvn8NTv/srKAvd52FOnZ2jSk6jfzWwYfmE2L6jO3cKcRSuoEPEMvvUu2vp28+33q/AZrVTVeLhi7G9ppNroM2I4NesLUbWzxyr9wqqOsmFPDvf962k6mQH8rP7qFSZN3swhvYkHx1zFoeXTWbOvhMj2A7jj6q5smjuNyZM3kWu2cvvAtrjKKjC2hapDGcyct5YaxUzvUffQv1nExc4dakihaY+hjB119YkwzXOY7z+bzUFLHA6boEO/0fSzHuHrlRsQQR0dRtxHO18G02avwmVowrBbb6FtZJB1875my75yGvW6mhsHNGbF19PZWRKk24gbSMrdQQ6deXzUyGNbEZTuXc/azFKC5fkc0SVwy/ibaWJW2bZsJmt3F2Br3Yc7r+3Kmu8+4pNFNfjQMX7MACIvzq66qLx+lW59h1Hp3EJAGCBUzPzlexn8u9e4rqlCxcuPsXJ3IS16pYBWwcLFm+h2xz8Zm27G9PJfWLb1KG0GNa2NywtdrrwKl287qlrvTh4qZ97ijbS/7QXGdbDx5X8eZ/GmHNoObolz73ryzY0Z2ymFSN3NdAFC7YP8+dMtuMb0IQo3S75biprcmRTb5Vvt5xJ2hl05FFdGIZoCFG5l0W4v975yF210R3nu+ffZtCeJlbuqGDPhMbqaK5jw1wlkHBnN8GZmCJYwZ/FaGve7k0Htk4mPsh6L2c/q2fNxxnQi3VG/IBB4tSj6DxvNoa2HwssI7xFmLd/KsD+8yYjkENV//zOrdlVwW884qvdv4pDSjJu6dCWqezcAOujy+HDnHsb1awrOfKYuXk98emcM4tIoeMJnl7JGoRjPR+MvFa8hki79htPJeoTJH03DG9ucISPH0MpcyO5CL41izTTv0o8h3VqhqMHz9jQjnZ6S1JVbB/VgytN/4ssFmwhipmOnDrRL78QV/bthDwRxNG7NkKv6sG/R53y3z0W7nt1ol96RgQO6EOPcxYyFaynJ38O/Js8hvu91jOzXHr2inn3jF4DRYiB/y0ImT5nCjMUbcfndfDtpMkeS+nDDlR3YtXwaCw440Y5u4tvvl5LW+yqahrJ567PZRHe7mp72PN6ePI0t675nyqZirr/pJjo0trB22kcsL4plzI0jSDXraX/VGJqE1vD4yx+x6lA1oFC6dzGffbOR9lcPJ60yg8/mbgRVENmoGUOuGkDe6ql8vbOabj370qZDV/r3bcflOsdbXLMeDBjWHZsSQuh0UF1AcTCOxmm1r6Fb2hIoLSuvXThwhEqXheaJtVPWJqUa8RwpPxFXQsseDBrcHbOiEXZTcZVShJ2WjWv3clpsIs6KMgAyfthGs+4DiNJB7RZrmDl7B4m9+hIFbFj0BQVNB/DAsE6gXL71bc26XMEVfZqjCA0F8Ofl4XE0IVEHYKOFKYq9e/fhi29MU3NtWFqEndLKCgBEdS6H9hZyZMcaPnn/Hzw/eTEBYNfqqeyN7MJDo3qjCyuidLTo2ZchXVqgU0PUHxFarTqKzxRH22gAA0nJVsrLa7ezcf02WvYaSJT+WDWG8yjzNhykS+9ugIvF02YTP+BehnVJQNFf2Nd9WlU+vowvG4SHz8dsjSLy/qnozjBO9k+jR63KZe3KVWw6VIC3shIsUaTGulizy889f3iM5o7ah/egPwhnGNxbOo90Rvre/Fv+9Oh4PBs/5vWvVmFNSSM+JoHmaYnoRCWZe7eweuUKqivdePxBYholEhsdT9PkRKxGA47oGA7v3EJ05/5c3yud1j2G0Kdp1MXOGQCaJrBEJ9KqTRtaNE7EWHmAgwELY8f2pnXLLowa1IVInY+AYiG551CubN0Ua+Eu9ufWcGTrOjYVeGkUE0Fa04501LmYsXILxogUenToiMG5gbnbDmNLjEfvaMlTz/6V23vZmfPv11maV4XZEkf3IVfRsWkL+vVsSaA4Hy1YSc6BXaxcuZiKcjcen0ZcYjLR/7+98w6ssjof/+fO3JG99yDsDWFDGAIOxI24t7Zft7XW1rZWqx1Wq22tdQMW2RtkyQ6EmQCBBJIAgSRk73H3u35/3BC4oNX2J0navJ+/7n3HOec557znOec54wmLIikmrKPMWV0TlxulTS2i06PTyMht9n1BEdFo2+YBdUY0WtpHT5IIiu6yOUKn+8qOvl6PVgZR9t7xyAIYLOAq4mCdhfQ074hbbjrPgrdfJT96Ak/dNJyqfUt5d94+/MVGjubkcjIrm/Otnh9e/v8WXBctBlqDHq0s4S0KBQEJP4MBJJkLT7llAY3Wq/w07haaRSNTH3qIl3/xAsEF21mweiF/m7MLi8ZOTk4O+dnZnGv03eMrfoOO0OkMSIqI0FbQkiChNQaA/QS51UYmjfZuAbZXZPHHP3xM4NgHmDUshsPL3uHzveWYGis4dvw4OYeyaXRfhXz6FsTyXFoXP3mFT+YrunvGvtPQmH5YA5piy+Mff1vCoIef5Sd3jcGiUTAIbpYvXEjSrGeYkmC+5GEZSZLUEXMnILs9uESFyJ7DeeLZRyjL2stpmxtJErEABV99xorKBJ5+/hVGJwbgEUSQJVyigBbQaGQ8Hg9B4RHUnCumEQA3TY6u0XCJboGgxIFMHjOGYf1T8DMbsVeVcrYGQOFUUQ0e2QRIuBXvKF+2WAmJ7MGsp57mmZd+w68emEZgTF+efe11JgWe4L135+IYeCO//+3rxBeu4a2F22kVPIA/I6ffx+xxClv3HUOr9UNp0x4ulweDxUrhjhX8s8CfZ55/hUm9QhAEAUn2IHgk9Ug+FCRJQhZlCIomlhqKzoqAnSKng2G9EmioKqdJjCUwsIH8862Ai8IqHb2HxlFfWU6jQ/QNq+13fdV5mnQhJBjsFBQ3ARLn6loZOrg3JZnb0PYeQ7IJZFcVCz79EO24p3jtgRsINII5fgBPPXgvgbKbFpcHQRCRu3NjpXjzVgIMyQkE1BVxXgCayqjU6RgzdBh+dcUU2QH3eWpkCwNirVSXV+IKSSY51ojNBiAimnT4x/bl4XvvI0oj0Oz0IIoysuiiqqyC9qUDiowoSV5zhuymqqIchzWeUKWRwioFqOV8jYm0IdEUZmaiSx1NigE8FUd4f+4mRjzyMg/fNBo/IGbADTx6dzqKpxGnR0AQxU7RPXKLrz/mDumUa4wxDE/rxd65f+eY+xTmyLGc3rOOVZvPMky/gQ+Pahg14x5GJFhBZ8RqtaBTB80djtx4noULP8NuiMMjOhk+Yyb9ouPJClzDhws3MavXFPoVb+HDeRWcrpMZbdKBpT+pISv59MuNPDImkECjQmLaRNKP5/LOb94mLsRC/1kPMcXS+StXTYEBN816HAAAIABJREFUNORu4f2PilE0gUy+9TbuuXEs/3z39+T1j+dErZNEnYxWbyLA7G3UrT3HMC3pMB/+/i1CA0MZMPUG+kqFrNpwGL8wK9dMG8W5HUtYcKyOIL/ezJyQQlnOJjZtOIMh1IBTiuWeWcPgxBnMJu9IQWc0YzLoiOo3moE5y/nHXBvF5W76G7XoEofTw/kmny/twaN3TeqWc8xedFisVowIoIngtlnTmbvi97yrtxIw/G6m9DCy8Hd/xnDDG9x75x18vPB93t0pY+17A9f2NfPP194h+MaXuWtUGGjawtJqAYk1c/6IZeab3PzArcxZ/Afe2RFNYJ/buD7Jxacrqkm/ZzgAYv1pcgubiAvfz2fHtyKH9Wb2XdcyJXEgAEGtJ8kLG09SYOfX7U5DZ8BqtXhtG6FDuWf6MRb/+Q9sk/wYdOOd9ExO4Y5re7P8r6+y2xDC4BmPMNR8nt//6Uuu+92b3HXTaD755C0O6FqwpN3CraPT2le+x0pFGPXXkBrYyO9f+YxJr/2OCUFa0BkJsFrR6QBPMXPfn8PEF9/m4buvZc7nf6AwXEvYhFmMCm3k/RN1pN09CoC6sznkV9UStXclH21pIajXaGZfN4brBwDItJwoxpg+jlC/TslJH3y8SwHYN7yOecKP0AbF/rAxiQ5KSyrxC48m1GxE8Diw2524nE4ENIRGxRNs1oMs4HCJmMxmtKpy7mBEGqsqaLSLaK3BJEd7pzRERyPljR7i46Jw15VQ5TARFRmEwWDEqNMitd2PiAwDUcBkNqNBpLq4BIc+iIT48C5hllVkD421tbQ43EgYCI+NI8hPi2hroEkQWT/nT7SOeIpnJsRjFxX8TRfWW0hUlxRjw4/YhHjMkp2K8irc+gBS4iNRHI2UVtajDYgkITIQxdlCeXUdHgmCY1MINWuQ3E7cih6LyYAkuHBLWiwmI87681TY9ERFhmA0GDDqdXhaqqlu1RET1zXyrVNQZJxOF3qTGUNbQ+CoK6PSpiclORotCg5bKxgDsBg1OBsqqWiRSUyOw4CMw2ZH62fFZNCCIuF0utGbLBi04LS3gNGK2aDD3VhGabOWlORYzu+Zz5xcC79+ahYmAMlDY0MDLTYnMgoaoz+xMZEY28wZgtuBpDFiMnbbUmpvr/0s5vZtTvXl57BpQ0iKubgdqamiiAZC6REbAoqIzebC6O+PUQPN1aXUefzokRDFpU2+6HYiaAyYDRrsNieGtueRBWxuAYvZglYRsduc6C0B+OnAXn2eKo+RHglRlGbOZ+6JIH7941swALLHQVNDPc1OCRQJg38IMZGhbelWcDuc4GfCT9dx9ipP/hZa5t1P6Ku5aAMuun70UcxyazX1v+lF6K+Pq24fVboBDratXo1NF4HOfoq9Z+DJnz5DUnddddXNaaorw2YIJT5IrQD/C7TUleMyhBEZ1HVPs1QEJ4qrxUcpw2WmbEXowFlvFZVOx8LA/n05crIUd1B/nnphEolqm9xtCQ6Pp7OOVVL54QkMj+vyU0EagxmNwXzFdb3vQ13AuK6i0oFE90ljRp+0zk6GiopKd0QSUTx2NGbfnSu++5gDojCNug+NthvPmaioqKioqHQAnlM7qH+tF3Lrd6zKDrjnow5LlIqKioqKSrdFllEEF1L1KZ95ZnW7pIqKioqKShfiihGzcGYP+vihaEz/2quQchWdAKioqKioqPwvo9VeHBdrA//VqmzRRfPcewn56R50/1IxKwiigKqZVVRUVFRU/n2Mfn5oI3thnfk6usjePvd8FLPcUoPibP4eQWowGtUV3CoqKioqKv8p+ohU9Jf5YgZ1jllFRUVFRaVL4btdKjDyClu3ioqKioqKyg/PBe9Sl+Pr9lFvIuSlzB/+nGwVFRUVFRUVHy74YxZKsnyuX7Eq+/IzO1VUVFRUVFSuIoKvz+lvnmOWpW+8rKKioqKionJ1uUIxN/1tKlJTWWekReW/HVnE4XR1b8fxKioqKt8TjSkQfdxg9Mkjfa7rXn/99dcv/JEaSrGv+zXmiU+itXS0nxWF6oKDrN28nbyCakJ7phKoVx0ydzRKaxmb121g/5EjVIqB9IwN+d7vekp38+xfljF4fDohXfC4dUflKXLONhEVHdqh2xGq8/ezfuMODheeRR+WTGSAoQNj/y9FsXHycD5CcDgBBi3g4fCOr9i8OwtNeE+iA42XPCxxcscG1mRk4whKICnkMm89so2Th08iBUXib/RtU/Iz1/LV9sOIQfHEXfJeeVEupW4jlB5m7cYdnCxpJLpXCpb2iqNQmJVBsTuY2JCu61bwaiM7qjl2rBRzTAQmDeBpYOtXq9mTc4bgpH4E+wFiC5mbVrLjUBH+ib0INfl+fVW5u1i9aRvn7XqSEqPa51fPHd1NQYuFhHCr94IClQX72bBxO7lFNYT1SCXAp53xcHTLSjbuPYkuMonogIt1pPbsUcocOhrztrFxxwFymzT0T46+pB1wc2TnduwhiYSadHQUutAEzOMevcI/RRfaLuWiqqqVuJRULLUH+XjuChydnaRuhmIrZs7nc6gJTCY1ORRbiwN33VE+/eBLqr5lFCw1ZPPp+/+kSgZj7Ehee+5xYo3f/Gxn03AygyXr9uH67kd/MOoOr+XjjdlE9+pJdIBEfaPze7/rKt/Nxx8uo+kqpq8r0lKynz/98mf86g9zyXd4K97RNZ+wNKeV5FCY8/mHnGi5ON2Wt3UeC/bVkBKnY9XHc8hpENrvNZ3bw1u/eInX/zyPM3bfeE5vnMvCzBoSY/1Y+/lHHGlse0+uZd2y9Zxv8FDbYCMuNRXN6a18snAHF0L2VB7ht68+z9pjNVczK7o0FQdX88pPfsZbH6+lDgAX6+e8z8GWIKI8Rbw7dzFORWDPnL+zq9pKrKGMOZ/Np+pi8XDuwFrmZ5ygx8BBpMSEcUElyo2F/PG151hy6PzFhz0eqqsbiUpNxVq5n0/mfcXFIpXZv+ozFhY4SQ2188nHczhnl723pBqWLd9EUX01NS5/eqSmULZjIV9sK2x/u/nIMl792V85WHNZJekkfNS01hyExnA1en8ytYV7Wfv1bhoFf8bMfoyRmkIWrtiGS2fgfFUTNzz+MpMmT/c+niKx769ZNChgUQfNHYetkVNny7jt/rGMjQAQ2PnlGyxfeZia4BCeuWMa+V8vYm9hPfqUNB6/LZ2jm9exfFUWdeHhPJDek6PHSrh25rWUHtnCqi1ZuDR60m77P6b3Dvqu2K86WoMfVv8AdEINqxeuo0kxUFt6jripD3LfhB64awtYumQhdVIcFkUidvosbgivYd7KXdgswUy4bhapzftZ8nU2LkMQ02c9zIAgF1+vmENeaTNhI2/n/vE92bX6E46VNBM59i5GSBU02I2kjxvf3ug0F+3lyx3ZhBj0nCoRmf7E40yI1LF77WKyC+swpQzmoVkTydywjhUrTmELD+DR228gtAtaIa4GsiGEm2Y/CCu2Iyh6EMrYerCC659/lmuioeTkT8nMK2fAuESQatieWcj4h//EtBQtzmO/JvNIKUOnpbaFFcHMB+7DuGwXsnRJ79JTzaa9BYx89HdMSzXScOolMg6fZfi0PjTkZFIf3IuHBkRh4Xrv4+GVvPLlKZxcg0Gq46u1ewjrP5E4i6czsqhLoIT25NH77mbelkIUDSilWWSWmHjyrRtJIo2s1z/gwJEE9p7XcMcbt9BP28Kh135NdsndzOxpBk8Fm3cfJXnMbIIDraT0iPMqJKWFTWu2Yu41kWT/S9Y7+RkZOnmG93cPB7vfy6VFuQmrBrCdY0NWETe/9B4Tw2TKcn5GZm4dKWMiqcs9SI2lD48MHsQFd+uR9UeYc+4c0Ae55hTzMwroPXokBkXu0DyUbXWIZTkY+07zue67XcochPXWP6Lx8/+Bo1fQhaUwcfrtjIxoYuGcpTijB3L3408xJNRGqyWOfjFtWSY1sGzJBgJHphOrKuUORRM9hEduu551bz7L+19uoFHUM3bCWNKGjuHmmVMIQkvSoJHcOCOdisxlrMm3M/KadNKGjObWmycT5T5DRtZJqs4e5u8r9jNi9o944q4ZxAZ0nGnoO9Ho0cnN7PpqM/SbyqN3j+bA+iWUNjez7osvcPSbzaMPz8RTkE3WuUZoOs3yA0WMu+FW+inH+fCLDHpOvIFRARX88fPFHM5YyYoiA488+TRTBsVRmDGfhYV6HnnyaSb2iaD35Lu5LrCaX/zyN6w5eAoFEKtOsn13Fv1vuJ9ZA2UWLt6IW9GQMnwM1980hbrMFawscDJh2gSGD5/ALTMmEdSFsvBqExzbl/7DktBKAmg10FxDgxxMeNuGkQS/MBqa2uwIngrsDhOxQd6mLDRSh6vqoo0hNL4vAwckoUiibyT2Rhp1VuLDvead2KAInC3e9w4czKP3yAntjTiuMr5YdpjkiZMJVCS+XrMQMW0mD6enomi677REXK9B9EkNQRYlNIC7ohqnfwzeLriReH0QZ84UIYRGEq1tu2YJoLGlEQClqZizJ8opO3OcjK/n8dp7y2mVZPZtWkBtzyn8ePoA0HxDb1SqY9GXGUSMmUxkm46QWqqQjaEkWAC0BEeYaW5qAmT2H8il77iJ7eXpqchjReZZxqSPAk81q5dtY9BNT5LeOxCtoWNPtBRLsmn+5HakmlM+168wZZvHPYbWP/wHjl6m+uQeNmzextHzdWjcLrR6P/zsuWzKUXjkx48TadIiNJ3l8z/8jrL4KTx3++iuZGfvJmjpd80dvPbayyTUb+fduZtw+gdjNVsJDbIitJ5l285t7MzIxOWUkUURk9WMyWQhyN+KQa/HPzCI8wUniBk+lgk9IghLHsSAmB+6o/f/g4IkKET3Hc7o4fGEp/YmxiLSVH6eIm0i108dRHBwPOkThmDWy3gkP4YNTGN4dABSaRGVDQ7OZWWS1xzM8IG96DtyIpMsDfz9i/U0OKD/6IlM9m/kgy/W0+DSYNSHMOOF3/Di7Inkr3qHBUfq0FoDiE5LZ1hUEH169CTAbaPWVsGxLdvYtjuTplYdblHCbDVjMlkJ9reg626dVJcAaLzn8RuNGBGR3G23FDfGCw2o0YKil/C0Daw8btCaLptLcbeFdSkmIzpRxtU2inaIDrTmQGjNI7s1jPQh0d7r5Xl8+NZbONJu4/+u70v57gV8uuQI7tLjbN2TzZFdGRQ1deTkSBfDI4HGm7d6kwG95MFbFDIuBAKsVnBLeO0KCq2iE73RO5evkZy4jUFc/9DdPPXsT0muyeafy+bx+cIDCFWFbMk4QM7uDPJrL07/eOpOM/cPv+V8r2k8d/uIdiuUzmDCI7vwtA14RZeI0RICjUfJbwpg0tAIAGrzt/LGX1bQ/9ZnuaVvKAeX/oXF2eepP36QzKxs9u3cRW0nFKfc4uuPuUN0n9J6gnn/3MbYHz/L0zcPQieJaGxNzPnnCgbe/yQjwnUg1vD5R3ORJv2YF2ffQGA3GiF0FSS7g/qmFkxhCdx29500nDpOuUtGEl3oNFC4eREZrgE89cxLDIww4vSIoNHhFp14xyMSLqeTyPgEyvNyKXEB7gaqmrtGw6VIIoIggaIguEUEERDcuD0COmsQ+rpTHMpvAdzkHitEQQeyjNst4AYMIUEEh0Zyy4+f5Mlnf8ILN4xAq4vloZ+9yi1xlXzy5Woatak8+vKr3Bzv/V9T34JNhpih07hhSC+O5p5B0Gtwebxaxu1xozVoyd22iq9tqTz39AsMjfDD6ZFQNFrcgpPuuXlRQfAISKIEgbEk6+vIy2sGsZpCh8SYfvGUFhyn3BZNVFgrOYWVoNRzosrI4LR4ivPzKGv0+IaleH8XF+RQJgTRM8BN7snzILdwutbD2GG9yM/Yif/AscQYQLIVM/fjuUTd8nNemDkGAxDUfwq//flz9I2PxWIxYgkOxt/QjRsrRcbjERABfY9UQhtOU9AkIZWdotLPwoS0kfg3FZFbLUJDAfXacIbHGijMPUlLcC96RkNxqQccFTTojKQOmcTPfvoCQxJjsVhMmIPDCNQ5KMzNp85Rw6KPP0E3+Rl+fvs1mLWA1EpBXh4NliQSDTZyimzgOcfZ+gDGpUVwdPd+LP3HE6sD57ndvLcokxnP/4JbxvdGA/Sa/Ci/fO4O4mMDMRtNBISE4tcFitNnVTaAY/t76CJ7ojFaf7BINDoLiqOSzK17yC2uwBQzkDDnaVZvPIFe08ChQ8cwGI0UHs3F4Wokd28GX+dXkNCzLyF+3W2o0HkoTedZMvfPbNt3jIzcMtJuvJNJvVKpKdjBlnw7I0aMwnZiPZl5RVQ2CfQZOY6+sXHUF+5i60kbqQlRVFY2M3HmDILr8liyeDPHjp/G1HcoSQGdvyLMVVdCsT2QEYMiOFNQSc9RIwjXtJKfX0rP9OsYnaCwdeGXHDpbTlNpNdo+IxkXJXKiBkaO6EdAaBzGykyWrN/B7qw85Nh+hJTu4P0FiygTwph4/QzCKzL5x8JFnG/7H1F9gE8XLODggcPkydE8eMsUQuxl5DbpuWbYIKTGcvIajEybMpSaI9s5dCyf6iYPyaPHMSghnrKczWSccTNwYB9vQ9RdkBwU5p8nbtgwkqwBpMQHsnfDl+zMKCBh6j3cOCCEr+a8T3noJGaNS+Dg6qXs2H+QyJF3cvOIMFZ/+hH1YWn0jzWDZONUQTkJw0cTZ5FYO/dtqiImM3NCCjnrPmHzngKiR9/Ozf00LFq3j4kz7yTWokGsy2fztpM43fVk78ng4JlG+o8ZSXJcLHHx8ehs5Zh6TWRszx/awvhfhL2O46U2Bo8dRogpklT/FlYtX87+ow2MufNehiXFkRRs4+tl89l5tIFxdzzEqJA65v5jGcFTbmZCrIY1y5aRue8wSZPu5/ZRvYmMiSEuPh6zpxolJZ1JqQJffLgKS58ozuw+RrO7mZy9GewtqCc5wcDa+YvxGzqT6QOt7Jq/iB1H8ukx7T6mJDpYuPEQ42+6kziLhrrCTLYcP4dSW0pmxg4KGmDEyGHEx8QSH5+MrbyKpMnXMTC049oqqfYM7iPLsd70W58pZI2iKO0rIuTWaup/04vQXx9HF5b8AydBobWpCZ1/CBY9iKKALEm4nS4kjRazxR+9RsBhcyIDklZPgL8/hu7UGHU6Ch6nDYdLROvnT6Clbf5MEWmxuQkMsKK4W2l26QgOslzymkirzY3ZakWvVbhgNnS1NOLSWgj27zqeyBTFa3lTFAVNmwlOURTQgKYt3YrgYsHfXqUu7Ql+MqV3+zsXcLY04MSP4EArWgTszTYEvYVgqx8oAvaWy/632hEkBXNQCH7atvjgkvi94cseGy1ODUFB1ouGV9lDi13A6m/tdubsS8sIQHHbaHLrCAk0t92XUdCi1QCCg0aHQkiQFVCQFW95Xnj9ivKmLf8FOw0OCA2ycnrXFyw5F8krj8xoW4SkIAouHA43MoDOQMCl5aAoKBrN5Ubybsfl5eSxNePSWi62H4DoaMKmWAm2GgAFRQa03ryTnK20igaCAy5feKygtH2ViqKgAUTRjcPu8paH1kBA2zSP0lbWistGk6AjJMDM2Yz5LC2J4RcPTveWkSIjuhzY3CKgoDWYCbCauFicvnJ0BIqrBam+GH3cYJ/rPopZaiil4c2BV0kxq6h0ZUQOLPmUbCmA8IYKjrhDeOqZJ0g2dfdmt/vgsDUhGP0JMnaT5e//4zjtzch6f6xdwTb9b6LWQBUVAPQMnDId7ZkKhNQBTB8+nLDOt76rdCAW/44+VEnlamK2dv4Wzf8UH8WsC03E2DMdNKr9WKX74R/Vi1FRvTo7GSoqKt0E4XQGrUueJuSVbDT6i6b8KzRw0NMb0IUmdmjiVFRUVFRUuhuKx4nUUIpY7Ov2UR0aq6ioqKiodCGuUMxSQymKRz2lWkVFRUVFpUO47ChsnzlmRXTR9LepBD+39TtXZcuShOrdT0VFRUVF5d9Hp9OhC0vCMukpDEm+bh99FLPcUnPF0WDfhiRLqJpZRUVFRUXl30en06GN6ov11reuuPcfb5cyGNS9JCoqKioqKv8p33agic8cszYwEm1gVIckSEVFRUVFpTsjVeVjX/OLK677un3Umwj60Uq0/hEdljAVFRUVFZXuiFRfgiPjQ4QS3+1SV5iyLz+zU0VFRUVFReUqIvh64FP3MauoqKioqHQhrlDMzf+4EamhtDPSoqKioqKi0m3QGM3oQhPRJ/tul/JRzFJDKZ4ze/D65FJR+fdQBDsVNXUI6jY6FRUVle/E0GsSoa/m+ZyTDaB7/fXXX7/wR3E249z9IeaJT6K1dLynlXP7v2Lpmk3sOttASs9UAgyqy72OxlV1kmWLV5Gxfy9nnYEMTApHECV0um+b9ZARBO99sWwvL/1jDUPHTyTE8C2PdyIt546wO6+OhKQoOswRnCJz+uBmVqzezL5jeRDWm/jg77nVUJG/I+//d3G0lrFvxxGU6DhC/HQgt7Bt9SLWfL0bZ1BPUiIslz7NvhWLWbplNzXmOPpGB/qE5Ww+z75dh9FGJRHkd0mborjZv34BKzZm0mqKITXmojei0zl7OeMyo5zazaIVGzlyspzwPv0Ibm+TRA5uWkaBO4oekdarlxFdnOaKk2TuKyIoNR6LBmgpZemihWzffwxz4mCi/bVgq+SrZfPZtCsPY0JvYgIurf8yp/asZtGajRTbjfTsEdu+8OnY9uUcbgymd2xbeSoKhfvWs2jNZo6ebSKpTw+sPk7KW9ix9AtWbz+MKzSRlLCL5VJ6LIMiu47q7HWs3LCLfeUuBvVJxnjhdbmFrUuXYYvuQ7Sl850u+q7KNlxdh/ai4EK4MBiXJTxuNx5BAkCRZTBHM3n6tcTVHuDt+VtQx+0di9J8io/mLcI6fCrTp44i3GKgpWwP7731IWfsgvc8GUXG7fa0v+Ms3827v/+AMzYRXfwE3vvl8yRc6PyJbtxi1ynFlrPZbNqZQ3vqFQmPcHn6RNxu8Yp3ZdGD1GYJkDzuy6wCMm63cMl5O97/AJV7F/PF/jImXH8d44ckoxMvhq2IHnyyR5Fxu9ztf5vObOLPb8+lXBC71Vk+jWd28u7rb/LXz1ZT5AZQ2LvoQ3bWRjBtdG9WL/yArPqLdfDQ6k/ZeN7K9El92Tf/C/ZVX1xIU1e4jXd++wYffrGGEuelsSgcW/4xG4ssXDNpIHuXfELmhfeEMjas341D0OLSBZJ+7bX0EPOY88V6LpSO7ex+/vTuH9hzpuEq50bXpXj3Yt74zR/5bPkOmgDkVpZ8+hEVYWmMT5T56Iu5tAhONn/6IYXmIUzsb2DxnDmUtpeDQt72xaw55WLGHXcyaUgqF/rz7soc/vzum2zLr7oYoSiit0Qz8drrCC/bzd8WbkNqvymw9YuP2eKI5brR0aycN4eTTW3fmqeMFev30yjYkUMGMO3aaZjyN/H5+mPtb1ftW8g77ywhr8Gnklx1FFcLYvnxK677dA20AVFYrnsFjdFyxYP/f0hU5O5i/Y5DNDmg/y2PcU1AKYuWb8OpSJw4W8OdP/09U4d67eyGM5HklnevxqhL4PFQX1VFP2s4ffr2pA8iO778Jzt2HkVITuaZ26ZxbNMCsoubcYb05Ef33khBxk52ZmQh9+rJ/ePi2bH3DLPvv438HSv5am8BaBQG3f4cN/UP6Wzp0BpM+AcEovdUMu/9f9JiDcdRdpqA8ffx1IzB2IoPMn/pSlyGRKSGBuJvfZzZ0WX8ad4mtNEpTJ1xGzEVu1izrwC3rGPsLY8xIszBmqXzKK2xYx12Gw+OSWLTqs8orrYTOOIuJlkF7LWtRPboTUSv3gA05m/l/bW7iQ+P5MzpJsY//jQzk/zYtmoRecUtiKEJPPzATA7v2sXOnafQp8bz2KwZhHZ+R75DMAT35LFnn8M6ZzWiogd3CRl5Nm54eSaDQ2Fs5k4OnSxnZHoKiOXsOVzB5P97gSHxULF7N1lHShl3gzevjaF9eOwnz7Dy86+QpUtaFHcl23IqGffk0wxJ0HP20Cb2Hy1iwvUDqMrKxBE9kPG9wjAyHoBkTy82r6zGA/g5S1i18TB9xlxPjJ/nGyToHvinjuXnz8Tw15VHUTQgnz3EkYYIXrh5NLGksO3wB+zL2sfB5kAeuGMCPRjKlr2/4kipjcQ+/uA6z46Dp0gYMZOSs5X0HpnotWR5qlizdjeJaTOIsFzSSTYYSB3m1RGmvFiy60AGdIDSfJbthTXc/vOXGRCskL4rk4N5tfSfEEP50QO0hg0kvW9fLozVpb7hLKyvBcBVfJgvs2sZOXk0erljBxJC0T6aP59N2Bun0QZcPEPkChuZ9fpX0AZE/sDRawhMGcI1029heLSTNQtW4k5I4/EXf87waImgAemMSvTHXnGUT3/3J+YfdzNj4tiOMzeqAKCJGMiTD99P1qe/4s2/fkGJTeGa6dcweuRE7rnrJoKNfgwYk85108bQfGQDGwvtpN84jdEj0rnv3huJU8o5cbaKipP7mbfjLLc+8wo/f/ZxBkebvjvyjkKjRSvbyM0+Tsyk2bz0/C2czVhNcX0daxatJmTq87z4woNEOio5VdmCYitnf4mL2++9n6FKDh/O30fPcdMZFdzAO/OWkLN/A5vOW3nipVe5d2I/ig8uZc05C0+89Gtmj02hd/pd3NVXy9svv8icjftwAUpjKXlnqpl879M8PTWK9Ss24tL7MTR9MlOvH48texNrT7mYOnMqo0ZN5f67bug2ShnAPzyB2MRgJEEArQZaGmhRAgls69tF6oNpbmnx/hFqcLtNhLWNJQJDtQh1Le1hBUYkEBcTjCAI+EyM2Zux6c1EBXozNsoShmC3AbA/+xQDxkxob8Q99bl8uPQYg66dToDHztKlSwi+ZjZ3pUUja7vgnE0HER6XTGSYEVGQ0QCemgbc1jC8RaEnUhdASel55OBQQtuuxZgCaLV7y0duKuHciTLqGqqpLs7/Ch59AAAMrklEQVTgz+/MpcZuZ9OaBSijbuKhCclIGt/8bS09wqdvv8miUzK3XJPWPsKW7bXojaFE+AFosIb6YbO1AgL7DxYyKD29vTwbTu5hyb5Kpkwdi9ByhiUrD3DN7GdIizeh7aQTLaXqUz7/O2bySnGRt20pq7dncq7JhQkFPRpsZzfzVa6FRx+cRYAerLGDueupH3P3qEg2r1hHgzpk7nDihk3m1bff4ZrQc3zw2WqqMGLQ6TAZNNgrsvly5VccOpqHRmNEq4hoNKDR6NBrNGi1eixWK5XFRSQMS6N/iAFdUBxJoebOFssHSVCI7DmYgT0DMQRHEO6vxVZVSZkxkfEj4tBqAxkytDd+ehlB9GNg7wGkWLXYS0uxSzrqCo9Rou3JHdPHMXziTO5KEnnr7Q84dKaOQVNu4Z4UmT+9/Q+yzjagw8zYB1/gjRcfwb3/C+ZlloG/P+GDRpBq0RIeHk2QRqSi6iQbl6zjQE4uHtmKLEs+edvt8IiAxnsev9mECTdCm5XRgQOruW3+0BSIovfgahtYOR0a9AGXWfyEtrAuxWpG75Gwi95GptnTgj4wDOoPkSPEkd7P2wuoL9zD+3/5nOibHuXhCUmUZi5l1cYCqrO2snLrAQ5+/TX59R1r/uxSiHJ71hoCTBg8TrxFIeHQuIkIDgaHB6+/QplG0Y6fyR8ArUaE4Aiuv3sm9zz4PP3dhSxY+SWr1p2gPnc3yzbtJnvr1xyruujtMCBxCHc98Qx3j7SwacVaGtt0hM7PH6dsw9k24PXYRKxBEShVBznjDmfSgCBA4eyB5bw1fx/XPv4LpiVayVr1GRtPnOfEtrVs23+AnZu+prILOFe8QjG7Di1Ettf/oJEoradYtSGHCQ/9iNnj4xAED0JtOR98vo6h995Hb7OA6KznbEkd1kB/rH4KdpedK2f6VK4mYkszxaUleDAyYvwUHNXnaZL0SEIrTrfAmYxNFOgH8+ijjxFnEnG4RdD54RGaaXYIyLKE3dZKbGpvyo4c5GiVHVdtMWfru0BNxztP7HILKCi47E7cIiAKOB0OtEERBDYVsm1fCW5PPYcO5gF6UETsDhduwBwdRZDFyNh7HuLBB+/jthE9sLfoSH/kKe4brLBq/RYqmixMeexJ7h3i/V9eVkVZYxOGmEEM6ZVKSWklIjJ2hzdPBI8bWQOFe7eRrenLEw8/QrKfhL0tb92eJlqcQjec1pFxu1yIggj+8fS2NJN9sARn/WlOuPyYODCOE/t2UFAbSUqcmwPZBThaznK8xsrI0XEc27uLgso2ham0haVoAJnj+7ZQ0BrIoGiZw4dycTeXUVivY+qIHhzelUnk0HGE6kBqLuDTT5bS8+6f8+DYPgiCSMTI2/jrO68xedxYkmNDierRkxj/buw3QBZxudwIgK5HX2JazpBV0kjjiRyqreGkjxxDuKOIg6fqaCk+TLMpidGxEvt37qE2qB/9oiQOH6vFVplDGVZGTr6N3/3ht1w3biypCRFEpPYlwWJn/45Mim0NlJfUYg0IwGoUsDncKLRyIGMXFX7J9Pf3cOBIOY76Y5xpiWBSWgj7dmcTMngiYUBr/ibeXXWM2c89x4R+4QiiyOBbXuLPr/2IsWMGERMSTmLv3nzftZk/JJcfhX3FquzmD2/ENOahH3RVtsYQjL+mkV1fbaGwUSA2dSiBrnPszSpD46pk3/4c/BJiObd1Leu3bGdXtYF7H7ybXsFda6T1v45iq+KrJR+zNfMo+4qamDb7PkYlJeMoP8TW3CbGTpqKkL+OrUdKEI2B9E8bSWpUAp6Kw2zPbaBHjyQcNoHR10wniXLWLN1ATmEl4YOHEm/tfJOfp6WWeiWMIX0jqK5sJXXoYEK1TsrLG+kxeiLp/UI5uHIhe4vqkBqbkXoMYXy8gXK7H0MG98QanEC4J5+VK9ezPesUpuTBRFTv5dP5izjriWTmHbcTXr2fz+Yv4qzb+z+iNov5y5ZxYH8Wpf69+dGtE/F31lDqsTJ+QF9kWwPnXf5Mnz6alpxt7M4qQDAF0ittBH3ik2guymR3oY2Bg/pg7k6Ls2UPFeVNxA8eSJzZQq9ecRzfvohte0sYcvNDTOphYfeaxTSEj+f2if3I37KKrQeO0WfqA1zbL4DtK1fgiBxK72gzyG4qK5pJGDyUaLPCrrXzaY4cx4zJgyjaNo/1e8/Rb/p9TI5uZOGmHKbdcjuRJpCaisk+UkJTfSkH92SQVdRMv7QhRIUEExYWhs7VgLXHSIYlhXZ2bnUe7lZKGmUGDB9AkDGM/rE6Nq9aRlahyLX330efyDB6xxnZs3o+u/IFrrv3YQZa6lm7fDuhE65lcmowO9YuZ8/h0wy76TGu7ReDf1AQoWFhGMVmjIkjGZkosW7ZdkLT+lG0dgFrtu/maIWZu350LymmJtYu30DA4OlcOyKaI8uXsO14KWm3PMzIwAq+3JrL9NtuJdIPms/nkXOmjJaS02Rm7ORUk5YhQ/oRFhxCWFgErsZmEkdNoHcHamaNJRhj70lXuH3UKIrS3hmXGkppeHMgob8+/p3+mP8jFBk0l7UusowMaLRaNIAsy2i13akF6nrIstxeHu0oCrSZVGUZriiiS+5fEhIy2v+S4+UUPG4w+mkAgc/++DKeic/x9PiUb3hURtZcIpeioGg0F/Pr8v8oyLLyver198/b7onMt8+/yYp3SvrfDrPtvcJd8/mqOpEX75rsE4ciy20WCw3a/ySCboeCgubyyQMUrphQ+F73Lue7dMSFOlKUsYD1tSk8P2v8Fe8DoNGg7aLfVccqZhWVLovE/kUfkNGkJbipjorQATzz+Gwiu9Giq+6OIHjQGIz/uS9clS6FKAro9IbvrfC7Ej51UBeaiCF5pNo7V+mG6Ei7+R4iy+sQtFaSeyXRhdaSq3QAqo/5/y30+s6fPvsuhKJ92Fa/TPAL23xO/7qicxj8/HaQpcsvq6j8z2P0jyS1zw+9VVBFRUXlm7lwwIhYnIWhZ3r79W821GvVHcQqKioqKiqdwRWKWW6tRhG772k2KioqKioqHYrBd+LMRzEroovGP09AbqlCRUVFRUVF5eqhC++BadR9V2yX8pljlltqkFuqEUsOITeeR+sfgS7Ke+as1FCC3Fh28WGN1rtQTKtHEZyIpUd8I4zs1X60p1h+HMXVevFVcxD62IHeOJsrkOrO+SYqaQQavR9IHoSSwz5uKLUhiehCE7xpqirwOQxFY/BDnzjCG669Aakq3zfc2IFozEFerz2lh+ESy4A2IBJdZC9vuPXnkJsqfGVNGQ0aLYrbjliW8+2yluWguO1XX1ajGX3C8G+XNW4wGlPAN8saFI0uPNUbbl0RcvMlHTG9EUNimldWV+sVB6zrovuhtXr3bYrnj6B4Lp56pLWGoYvu6w234Txy4yV+vTVaDElpoDOiiG7EkmzfcMNT0AbFesOtyENxNl981c+KPn6oV9bWGqSa076yxg9F42f1ynruoG8eBseiC/NueZJqTiO31nyzrM5mxIq8b5e1NBtFuOhg4qrJagpAHzf422VNHI7GYAZZRCjOuqy+xKMLTfKmqfoUsq32YriXfBuKoxGx8qRvuBe+DUAoyfrv/jY6qx2I6oPWP/ybZbWEoI/p/62yGpJHgs7olbU4yzfcS+tL5UkUR+PFcC/9Nmx1SNWFvrL+L30bndQO6GP6o7GEfLOsPjryG2T9Dh2pi+pNwD0fcTnfuCq7Zf6jAJjHP4b/rL8A4D66Evv69rNI0JiDCHvjNBqtHrm1luZPbkMRLnp1CfrxKox9pwFg3/A6nvxt7fdMw2cR8MBcADyFO2ld/KRPuKGvZKMJiELxOGn+fLZP4fjf+RfM4x4DwLHzb7gOLWy/Z0ge6V28BkiVJ2j6x40XwzWYCH5+m7fR02hpnf8IUsPFTLRMexHrjV75XFlLcHz9R598CXklG43ehNxc/q9lXfsrr0/rqyyrsWc6QU9v+FZZQ17KRGcK+GZZr3sF6/WveGXNXuYra1RvQn/h/VjklsorZA1+YXv7B2lf96qPrJfWF0/BFmzLf+Ija9gbp9EAirOJ5jl3+8ga8OBcTMNmAeDc/h6uIysuytpvGkE/WgV4O3nNn9zuK+svstH5WVEkD60Ln/CR1TrzdSxTX/TKmrUQx7b3vlFWqaHkX8pqW/1znwazU2UNTUSRxSvqy6WyOvd8hHPvnPZ7l34bYu0Zmj64wSfc9m8DaF38pM/Zvf9t30ZntQPBT29A27aA5wpZR93X3gB/k6xhr+ahMRu9sv6r+rLr777twCX1RarKv7Id6G7fxlWS9cKI9j+S9XvoyMvx2cesoqKioqKi0rn8P30YkkFYVmDaAAAAAElFTkSuQmCC;" vertex="1" parent="95">
                    <mxGeometry x="60" y="423" width="361.23" height="110" as="geometry"/>
                </mxCell>
                <mxCell id="97" style="edgeStyle=none;hachureGap=4;html=1;fontFamily=Architects Daughter;fontSource=https%3A%2F%2Ffonts.googleapis.com%2Fcss%3Ffamily%3DArchitects%2BDaughter;fontSize=16;strokeColor=#CC6600;" edge="1" parent="95">
                    <mxGeometry relative="1" as="geometry">
                        <mxPoint x="266" y="422" as="targetPoint"/>
                        <mxPoint x="265.9999999999998" y="387.5" as="sourcePoint"/>
                    </mxGeometry>
                </mxCell>
                <mxCell id="98" style="hachureGap=4;html=1;fontFamily=Architects Daughter;fontSource=https%3A%2F%2Ffonts.googleapis.com%2Fcss%3Ffamily%3DArchitects%2BDaughter;fontSize=16;strokeColor=#999999;fillColor=#cce5ff;entryX=0.975;entryY=0.63;entryDx=0;entryDy=0;entryPerimeter=0;strokeWidth=2;shadow=0;endArrow=open;endFill=0;startArrow=open;startFill=0;" edge="1" parent="95">
                    <mxGeometry relative="1" as="geometry">
                        <mxPoint x="544.5" y="188.2466170740346" as="sourcePoint"/>
                        <mxPoint x="288.20000000000005" y="308.97" as="targetPoint"/>
                    </mxGeometry>
                </mxCell>
                <mxCell id="99" value="IPSec + BGP" style="edgeLabel;align=center;verticalAlign=middle;resizable=0;points=[];fontSize=11;fontFamily=Helvetica;fontColor=#000000;rotation=-25;labelBackgroundColor=#FFFFFF;" vertex="1" connectable="0" parent="98">
                    <mxGeometry x="0.1509" y="1" relative="1" as="geometry">
                        <mxPoint x="6" y="-5" as="offset"/>
                    </mxGeometry>
                </mxCell>
                <mxCell id="100" style="hachureGap=4;html=1;fontFamily=Architects Daughter;fontSource=https%3A%2F%2Ffonts.googleapis.com%2Fcss%3Ffamily%3DArchitects%2BDaughter;fontSize=16;strokeColor=#999999;fillColor=#cce5ff;strokeWidth=2;shadow=0;endArrow=open;endFill=0;startArrow=open;startFill=0;" edge="1" parent="95">
                    <mxGeometry relative="1" as="geometry">
                        <mxPoint x="545.5" y="429.0974025974024" as="sourcePoint"/>
                        <mxPoint x="289.5000000000002" y="311.9025974025974" as="targetPoint"/>
                    </mxGeometry>
                </mxCell>
                <mxCell id="101" value="IPSec + BGP" style="edgeLabel;align=center;verticalAlign=middle;resizable=0;points=[];fontSize=11;fontFamily=Helvetica;fontColor=#000000;rotation=25.6;labelBackgroundColor=#FFFFFF;" vertex="1" connectable="0" parent="100">
                    <mxGeometry x="0.1509" y="1" relative="1" as="geometry">
                        <mxPoint x="23" y="7" as="offset"/>
                    </mxGeometry>
                </mxCell>
            </root>
        </mxGraphModel>
    </diagram>
</mxfile>